<svg width="222" height="131" viewBox="0 0 222 131" fill="none" xmlns="http://www.w3.org/2000/svg">
<g clip-path="url(#clip0_101_107)">
<g clip-path="url(#clip1_101_107)">
<path fill-rule="evenodd" clip-rule="evenodd" d="M193.001 71.7159L192.107 71.6766L191.238 71.6401L190.344 71.6794L189.471 71.7159L184.966 65.4345V71.7159L184.176 71.6766L183.404 71.6401L182.632 71.6794L181.842 71.7159V58.3559L182.521 58.4254L183.404 58.4718L183.841 58.4619L184.367 58.4156L184.966 58.3559V64.3408C185.514 63.7402 186.119 63.0659 186.781 62.3191C187.338 61.6911 187.934 61.0041 188.578 60.2574C189.132 59.6098 189.728 59.1223 190.365 58.3559L190.781 58.4156L191.155 58.4619L191.491 58.4718C191.556 58.4718 191.643 58.4683 191.743 58.4619C191.844 58.4556 191.968 58.4423 192.118 58.4254L192.585 58.3559V58.5111C192.118 58.9375 191.636 59.3435 191.141 59.8296C190.642 60.3185 190.133 60.6606 189.614 61.1959C188.55 62.2995 187.751 63.1621 187.207 63.7894L193.001 71.4546V71.7159ZM176.689 71.6401L175.928 71.6794L175.148 71.7159V65.0946C174.594 65.0946 174.067 65.0882 173.569 65.0714C173.073 65.0552 172.54 65.0384 171.972 65.0187C171.782 65.0187 171.335 65.032 170.632 65.0552C169.926 65.0812 169.313 65.0946 168.793 65.0946V71.7159L168.004 71.6766L167.232 71.6401H166.906C166.719 71.6597 166.566 71.6731 166.452 71.6794L165.67 71.7159V58.3559L166.279 58.4156L166.795 58.4619L167.232 58.4718L167.668 58.4619L168.194 58.4156L168.793 58.3559V63.5084C169.368 63.5084 169.916 63.5182 170.431 63.5421C170.951 63.5653 171.463 63.585 171.972 63.6046C172.423 63.578 172.956 63.5583 173.569 63.5386C174.182 63.5182 174.709 63.5084 175.148 63.5084V58.3559L175.747 58.4156L176.253 58.4619L176.689 58.4718L177.146 58.4521L177.673 58.4156L178.261 58.3559V71.7159L177.489 71.6766L176.689 71.6401ZM161.805 71.6401L160.914 71.6794L160.042 71.7159C159.782 70.9299 159.592 70.3511 159.463 69.9844C159.239 69.3437 159.076 68.8878 158.975 68.6104C158.847 68.2598 158.712 67.9227 158.57 67.5925H153.729L153.216 68.9806L152.651 70.5168L152.267 71.6998L151.799 71.6696L151.294 71.6401L150.809 71.6696L150.3 71.6998L156.246 58.181C156.51 58.2203 156.769 58.2407 157.026 58.2407C157.278 58.2407 157.541 58.2203 157.819 58.181L163.622 71.7159L162.709 71.6766L161.805 71.6401ZM156.246 61.767L154.293 66.3829H158.092L156.246 61.767ZM143.896 71.6401H139.502V58.3559H148.697C148.662 58.4914 148.634 58.6333 148.613 58.7823C148.593 58.9312 148.582 59.0232 148.582 59.1588C148.582 59.4096 148.621 59.6941 148.693 60.0109C147.28 59.8296 145.258 59.7404 142.626 59.7404V63.9847H144.828C145.787 63.9847 146.608 64.1069 147.29 64.3514C147.969 64.5993 148.489 64.9688 148.842 65.4711C149.199 65.9705 149.375 66.5915 149.375 67.3319C149.375 70.2028 147.551 71.6401 143.896 71.6401ZM145.555 65.8153C145.15 65.3229 144.672 65.0784 144.118 65.0784H142.626V70.5267C142.996 70.5267 143.308 70.5168 143.554 70.4972C143.803 70.4768 144.018 70.4438 144.198 70.3911C144.842 70.2162 145.33 69.8825 145.659 69.3901C145.992 68.8942 146.158 68.3294 146.158 67.6915C146.158 66.9287 145.957 66.3042 145.555 65.8153ZM136.541 60.353C136.513 60.4885 136.475 60.6339 136.43 60.7899H136.143C135.738 60.2342 135.228 59.9645 134.612 59.6414C134.287 59.4763 133.972 59.347 133.663 59.2649C133.355 59.182 133.033 59.1391 132.694 59.1391C131.869 59.1391 131.145 59.3105 130.522 59.6512C129.902 59.9947 129.393 60.2904 128.998 60.8819C128.6 61.4699 128.313 62.1211 128.129 62.8319C128.035 63.2049 127.963 63.5681 127.918 63.9151C127.87 64.265 127.845 64.6387 127.845 65.0384C127.845 66.1616 128.039 67.1626 128.424 68.0449C128.808 68.9237 129.373 69.6043 130.117 70.0869C130.862 70.566 131.755 70.807 132.797 70.807C133.427 70.807 134.082 70.6686 134.764 70.3911C135.45 70.1136 136.032 69.7568 136.51 69.317L136.783 69.4329L136.33 71.1448C135.166 71.7124 133.795 71.9969 132.219 71.9969C131.118 71.9969 130.086 71.8382 129.123 71.5214C128.164 71.2074 127.333 70.7543 126.633 70.1663C125.933 69.5819 125.386 68.8682 124.988 68.0322C124.593 67.1998 124.396 66.2908 124.396 65.3095C124.396 64.057 124.61 62.9542 125.036 61.9953C125.462 61.0372 126.051 60.4141 126.81 59.7931C127.568 59.1721 128.444 58.7563 129.438 58.4556C130.432 58.1515 131.513 57.999 132.676 57.999C133.386 57.999 134.124 58.0819 134.892 58.2505C135.658 58.4191 136.33 58.66 136.905 58.9768L136.652 59.9814C136.582 60.315 136.548 60.327 136.541 60.353ZM121.324 64.1961C121.213 64.4005 120.902 65.0089 120.379 66.0162C120.001 66.7432 119.693 67.3445 119.457 67.8138C118.584 69.5446 117.969 70.8435 117.609 71.7159L117.203 71.6766L116.736 71.6401L116.271 71.6766L115.845 71.7159C116.088 71.3162 116.417 70.7149 116.829 69.912L117.732 68.1215C117.459 67.5532 117.04 66.8029 116.472 65.8743C115.904 64.9491 115.322 64.0345 114.727 63.1284L112.892 60.3073C112.289 59.359 111.838 58.8546 111.541 58.3559L112.251 58.4156L112.871 58.4521L113.407 58.4718L113.927 58.4619L114.557 58.4156L115.285 58.3559C115.426 58.6333 115.783 59.2016 116.351 60.1563L118.055 62.7821C118.332 63.2344 118.581 63.6475 118.803 64.0177C119.021 64.3872 119.177 64.6618 119.274 64.8339C119.444 64.5888 119.679 64.1856 119.984 63.6243C120.105 63.3932 120.292 63.0265 120.542 62.5207C120.669 62.2629 120.801 62.0023 120.936 61.7375L121.941 59.7966L122.64 58.3559C122.98 58.3959 123.319 58.4156 123.655 58.4156C123.96 58.4156 124.292 58.3959 124.652 58.3559C124.077 59.3372 123.295 60.5251 122.307 62.3557C121.92 63.0659 121.594 63.6805 121.324 64.1961ZM110.938 64.1132C110.412 64.7475 109.674 65.1873 108.715 65.4282C107.759 65.6699 106.616 65.7921 105.289 65.7921V71.7159L104.5 71.6766L103.728 71.6401H103.312C103.149 71.6597 103.028 71.6731 102.949 71.6794L102.166 71.7159V58.3559H107.281C108.729 58.3559 109.83 58.587 110.588 59.1489C111.346 59.7102 111.725 60.3761 111.725 61.4832C111.725 62.6001 111.461 63.4754 110.938 64.1132ZM107.952 60.1197C107.586 59.6414 107.125 59.3997 106.578 59.3997H105.289V64.6787C105.594 64.6787 105.851 64.6682 106.055 64.645C106.263 64.6225 106.464 64.5888 106.661 64.5431C107.288 64.3809 107.755 64.057 108.057 63.5653C108.358 63.0757 108.507 62.5011 108.507 61.8436C108.507 61.0639 108.323 60.6023 107.952 60.1197ZM98.3013 71.6401L97.411 71.6794L96.538 71.7159C96.2787 70.9299 96.0882 70.3511 95.9599 69.9844C95.7346 69.3437 95.5724 68.8878 95.4717 68.6104C95.3434 68.2598 95.2087 67.9227 95.0667 67.5925H90.2252L89.7123 68.9806L89.148 70.5168L88.7633 71.6998L88.296 71.6696L87.7904 71.6401L87.3057 71.6696L86.7964 71.6998L92.7427 58.181C93.0057 58.2203 93.2657 58.2407 93.5222 58.2407C93.775 58.2407 94.038 58.2203 94.3147 58.181L100.119 71.7159L99.2047 71.6766L98.3013 71.6401ZM92.7427 61.767L90.7896 66.3829H94.5886L92.7427 61.767ZM84.8158 71.6007L84.2964 71.5804L83.7799 71.6007C83.6589 71.6007 83.5589 71.6035 83.4857 71.6106C83.4133 71.6169 83.2988 71.6302 83.1496 71.6499L82.4708 71.6998C82.2426 70.9559 81.976 70.1733 81.6819 69.3472C81.3559 68.4418 81.0893 67.7246 80.8777 67.1963L79.8737 64.6717L78.7899 61.8829C77.0896 65.8047 75.8008 69.0796 74.9214 71.6998C74.5997 71.6597 74.2737 71.6401 73.9484 71.6401C73.6297 71.6401 73.3109 71.6597 72.9958 71.6998L74.6098 68.0983L76.0399 64.8733L77.4185 61.5921C77.6293 61.087 77.8582 60.688 78.1075 60.0544C78.3603 59.4166 78.5856 58.8785 78.7899 58.3362L79.1536 58.3762C79.3506 58.4022 79.5172 58.4156 79.6628 58.4156H79.8635L80.1055 58.3861L80.3206 58.3657L80.5525 58.3362C80.7705 58.9045 80.9886 59.4201 81.2139 59.9814C81.4631 60.6255 81.6609 60.9543 81.8028 61.3013L83.1807 64.6984L84.4898 67.8573L86.1249 71.6998L85.4323 71.6401L84.8158 71.6007ZM63.8569 71.6401V58.3559H71.791C71.7251 58.8153 71.6903 59.0499 71.6903 59.1588C71.6903 59.2677 71.7251 59.5515 71.791 60.0109C70.3574 59.8296 68.7505 59.7404 66.9698 59.7404V63.8491H69.1519C69.7684 63.8491 70.6203 63.7866 71.7113 63.6637C71.6418 64.0507 71.607 64.3282 71.607 64.4968C71.607 64.6583 71.6418 64.9463 71.7113 65.3594C70.8833 65.2498 70.0313 65.1936 69.1519 65.1936H66.9698V70.2056C68.7505 70.2056 70.3574 70.1171 71.791 69.9352C71.7251 70.3946 71.6903 70.6784 71.6903 70.788L71.791 71.6401H63.8569ZM55.7497 71.6401H51.7442V58.3559H60.5491C60.515 58.4914 60.4868 58.6333 60.4665 58.7823C60.4455 58.9312 60.4354 59.0232 60.4354 59.1588C60.4354 59.4096 60.473 59.6941 60.5462 60.0109C59.1328 59.8296 57.1109 59.7404 54.4783 59.7404V63.9847H56.6813C57.6405 63.9847 58.4612 64.1069 59.1437 64.3514C59.8218 64.5993 60.3419 64.9688 60.6947 65.4711C61.0519 65.9705 61.2279 66.5915 61.2279 67.3319C61.2279 70.2028 59.403 71.6401 55.7497 71.6401ZM57.4079 65.8153C57.0029 65.3229 56.5255 65.0784 55.9713 65.0784H54.4783V70.5267C54.8492 70.5267 55.1607 70.5168 55.407 70.4972C55.6562 70.4768 55.8706 70.4438 56.051 70.3911C56.6951 70.2162 57.1833 69.8825 57.5122 69.3901C57.8447 68.8942 58.0114 68.3294 58.0114 67.6915C58.0114 66.9287 57.81 66.3042 57.4079 65.8153ZM30 58.3496H44.5084V71.692H30V58.3496ZM40.8189 70.311H43.0291V70.3089C43.0291 66.5585 41.0637 63.8891 38.0891 61.8464H43.0675V59.7657H31.4532V61.8464H32.1023C37.0778 62.1695 40.8189 65.4823 40.8189 70.3089V70.311ZM31.4482 68.1657C32.8913 68.2563 33.6418 68.9391 33.7418 70.3145H35.7934C35.7934 70.311 35.7941 70.3075 35.7941 70.304C35.7941 67.8166 34.0772 66.2094 31.4699 66.2094C31.4627 66.2094 31.4554 66.2101 31.4482 66.2101V68.1657ZM31.4431 64.9751H31.4576C34.79 64.9751 37.2459 67.1212 37.2481 70.2998H39.4583C39.4562 65.9593 36.0071 62.8657 31.4576 62.8657H31.4431V64.9751Z" fill="#B2B2B2"/>
</g>
</g>
<rect x="0.5" y="130.5" width="130" height="221" rx="9.5" transform="rotate(-90 0.5 130.5)" stroke="white" stroke-opacity="0.2"/>
<defs>
<clipPath id="clip0_101_107">
<rect y="131" width="131" height="222" rx="10" transform="rotate(-90 0 131)" fill="white"/>
</clipPath>
<clipPath id="clip1_101_107">
<rect width="163" height="14" fill="white" transform="translate(30 58)"/>
</clipPath>
</defs>
</svg>
