<svg width="222" height="131" viewBox="0 0 222 131" fill="none" xmlns="http://www.w3.org/2000/svg">
<g clip-path="url(#clip0_101_105)">
<path fill-rule="evenodd" clip-rule="evenodd" d="M187.658 71.4193L188.851 74.4432L187.658 71.4224L187.658 71.4193ZM42.7432 65.1485L42.027 66.7751L42.5045 66.7751C43.2207 66.7751 43.4595 66.7751 43.9369 66.5427C44.0609 66.5347 44.1776 66.4832 44.2654 66.3977C44.3533 66.3122 44.4062 66.1986 44.4144 66.078L44.4144 65.3809C44.1757 65.1485 43.9369 65.1485 43.4595 65.1485L42.7432 65.1485ZM179.779 59.107L184.077 59.107L180.734 69.7958L176.437 69.7958L179.779 59.107ZM120.811 51.2065C119.378 49.8123 116.514 50.5094 114.126 51.4389L114.126 52.136C114.126 55.3891 112.694 57.9451 110.306 59.3393C112.177 59.2733 113.993 58.7108 115.559 57.7128C119.378 55.6215 122.004 52.833 120.811 51.2065ZM188.613 71.4224L147.788 71.4224L148.266 74.4432L189.568 74.4432L188.613 71.4224ZM34.1486 80.2493L33.9099 81.6435L36.536 81.6435C36.0586 82.5729 35.3423 82.8053 34.3874 82.8053C33.8198 82.8426 33.2504 82.7635 32.7162 82.5729L32 84.4319C32.7832 84.6033 33.5849 84.6814 34.3874 84.6642C37.9685 84.6642 39.6396 82.5729 39.6396 80.2493C39.6396 78.8551 38.9234 77.9256 37.491 77.4609C36.3897 77.2278 35.2499 77.2278 34.1486 77.4609L33.6712 79.3198C34.6261 79.0874 36.536 78.8551 36.7748 80.2493L34.1486 80.2493ZM40.8333 79.3198L43.4595 79.3198L42.982 81.1787L43.9369 81.1787L44.4144 79.3198L47.0405 79.3198L45.8468 84.6673L43.2207 84.6673L43.6982 82.576L42.7432 82.576L42.2658 84.6673L39.6396 84.6673L40.8333 79.3229L40.8333 79.3198ZM53.4865 82.5729L53.4865 82.3406C53.6793 81.9837 53.7622 81.5803 53.7252 81.1787C53.7412 81.0526 53.728 80.9245 53.6867 80.804C53.6454 80.6834 53.577 80.5733 53.4865 80.4816C53.4865 80.0169 52.7703 79.0874 51.0991 79.0874C50.6125 79.0696 50.1271 79.146 49.671 79.3119C49.2149 79.4779 48.7972 79.7303 48.442 80.0544C48.0867 80.3786 47.8011 80.7681 47.6015 81.2003C47.4019 81.6326 47.2924 82.0992 47.2793 82.5729C47.2705 82.8784 47.3301 83.182 47.4537 83.4628C47.5774 83.7437 47.7622 83.995 47.9955 84.1995C48.7117 84.6642 49.4279 84.6642 50.1441 84.6642C51.026 84.6924 51.9081 84.6144 52.7703 84.4319L53.009 83.0377C52.3226 83.3024 51.5973 83.4592 50.8604 83.5024C49.6667 83.5024 49.6667 82.8053 49.6667 82.5729L53.4865 82.5729ZM49.9054 81.4111C50.1441 80.4816 50.6216 80.4816 50.8604 80.4816C51.0991 80.4816 51.3378 80.4816 51.3378 80.9464L51.3378 81.4111L49.9054 81.4111ZM57.545 79.3198L57.3063 80.2493C57.5323 79.893 57.8486 79.5993 58.2249 79.3964C58.6012 79.1935 59.0248 79.0881 59.455 79.0905C59.9324 79.0905 61.3649 79.3229 61.3649 81.1818C61.3649 83.2731 59.9324 84.6673 58.2613 84.6673C57.7838 84.6673 57.0676 84.6673 56.5901 83.9702L56.1126 86.7586L53.2477 86.7586L54.9189 79.3229L57.545 79.3229L57.545 79.3198ZM57.7838 80.9495C57.545 80.9495 57.3063 80.9495 57.0676 81.4142C57.0676 81.8789 56.8288 82.1113 56.8288 82.576C56.8275 82.6374 56.839 82.6984 56.8625 82.7554C56.8861 82.8123 56.9212 82.8641 56.9658 82.9075C57.0104 82.9509 57.0635 82.9851 57.1221 83.008C57.1806 83.0309 57.2432 83.042 57.3063 83.0408C57.4949 83.0647 57.6866 83.0332 57.8567 82.9504C58.0269 82.8676 58.1677 82.7373 58.2613 82.576C58.2613 82.3437 58.5 81.6466 58.5 81.4142C58.5 80.9495 58.0225 80.9495 57.7838 80.9495ZM66.8559 80.7171L67.0946 79.3229L62.5586 79.3229L61.3649 84.6673L63.991 84.6673L64.9459 80.7171L66.8559 80.7171ZM71.6306 79.3229L74.2568 79.3229L73.3018 84.6673L70.6757 84.6673L71.3919 82.1113L71.1532 82.1113L69.482 84.6673L66.8559 84.6673L68.0495 79.3229L70.4369 79.3229L69.9595 81.6466L71.6306 79.3229ZM81.4189 79.3229L77.3604 79.3229C75.6892 79.3229 74.7342 80.2524 74.7342 81.4142C74.7342 82.1113 75.2117 82.3437 75.6892 82.576L74.018 84.6673L76.6441 84.6673L77.8378 82.8084L78.0766 82.8084L77.5991 84.6673L80.464 84.6673L81.4189 79.3229ZM78.5541 80.4847L78.3153 81.6466L78.0766 81.6466C77.8378 81.6466 77.5991 81.6466 77.5991 81.1818C77.5991 80.9495 77.5991 80.4847 78.3153 80.4847L78.5541 80.4847ZM85.2387 79.3229L85 80.7171L86.4324 80.7171L85.7162 84.6673L88.3423 84.6673L89.0586 80.7171L90.7297 80.7171L90.9685 79.3229L85.2387 79.3229ZM91.6847 79.3229L95.7432 79.3229C95.982 79.3229 97.1757 79.3229 97.1757 80.2524C97.1757 80.9495 96.9369 81.6466 95.982 81.8789C96.2296 81.8956 96.4627 81.9988 96.6382 82.1697C96.8138 82.3405 96.9198 82.5674 96.9369 82.8084C96.9369 83.7379 96.2207 84.6673 94.5495 84.6673L90.491 84.6673L91.6847 79.3229ZM93.8333 80.4847L93.5946 81.4142L93.8333 81.4142C94.7883 81.4142 94.7883 80.9495 94.7883 80.7171C94.7883 80.4847 94.3108 80.4847 94.0721 80.4847L93.8333 80.4847ZM93.3559 82.3437L93.1171 83.5055L93.5946 83.5055C94.3108 83.5055 94.5495 83.0408 94.5495 82.8084C94.5495 82.3437 94.0721 82.3437 93.8333 82.3437L93.3559 82.3437ZM101.95 79.0905C99.0856 79.0905 97.6532 80.9495 97.6532 82.576C97.6532 83.2731 98.1306 84.6673 100.757 84.6673C103.383 84.6673 104.815 83.0408 104.815 81.4142C104.815 80.2524 104.099 79.0905 101.95 79.0905ZM101.473 80.7171C101.95 80.7171 101.95 80.9495 101.95 81.1818C101.988 81.6585 101.906 82.137 101.712 82.576C101.701 82.7575 101.622 82.9289 101.49 83.0575C101.358 83.186 101.182 83.2628 100.995 83.2731C100.757 83.2731 100.518 83.0408 100.518 82.576C100.518 82.3437 100.757 81.4142 100.995 81.1818C101.004 81.0612 101.057 80.9476 101.144 80.8621C101.232 80.7766 101.349 80.7251 101.473 80.7171ZM111.5 82.576L111.5 82.3437C111.693 81.9868 111.776 81.5834 111.739 81.1818C111.755 81.0557 111.742 80.9276 111.7 80.8071C111.659 80.6865 111.591 80.5764 111.5 80.4847C111.5 80.02 110.784 79.0905 109.113 79.0905C108.626 79.0727 108.141 79.149 107.685 79.315C107.228 79.481 106.811 79.7334 106.455 80.0575C106.1 80.3817 105.815 80.7711 105.615 81.2034C105.415 81.6357 105.306 82.1023 105.293 82.576C105.284 82.8815 105.344 83.1851 105.467 83.4659C105.591 83.7468 105.776 83.9981 106.009 84.2026C106.486 84.6673 107.441 84.6673 108.158 84.6673C109.04 84.6955 109.922 84.6175 110.784 84.435L111.023 83.0408C110.336 83.3054 109.611 83.4623 108.874 83.5055C107.68 83.5055 107.68 82.8084 107.68 82.576L111.5 82.576ZM107.919 81.4142C108.158 80.4847 108.635 80.4847 108.874 80.4847C109.113 80.4847 109.351 80.4847 109.351 80.9495L109.351 81.4142L107.919 81.4142ZM117.23 80.7171L115.32 80.7171L114.604 84.6673L111.739 84.6673L112.932 79.3229L117.707 79.3229L117.23 80.7171ZM121.527 79.0905C118.901 79.0905 117.468 80.9495 117.468 82.576C117.468 83.2731 117.946 84.6673 120.572 84.6673C122.959 84.6673 124.631 83.0408 124.631 81.4142C124.631 80.2524 123.914 79.0905 121.527 79.0905ZM121.288 80.7171C121.766 80.7171 121.766 80.9495 121.766 81.1818C121.766 81.6466 121.527 82.1113 121.527 82.576C121.288 82.8084 121.05 83.2731 120.811 83.2731C120.572 83.2731 120.333 83.0408 120.333 82.576C120.333 82.3437 120.572 81.4142 120.811 81.1818C120.819 81.0612 120.872 80.9476 120.96 80.8621C121.048 80.7766 121.164 80.7251 121.288 80.7171ZM135.613 76.5345C135.105 76.8257 134.53 76.9856 133.941 76.9992C132.748 76.9992 131.554 76.9992 130.36 77.6963C128.928 78.6258 128.212 80.7171 128.212 82.3437C128.212 83.2731 128.45 84.6673 131.077 84.6673C134.18 84.6673 135.135 82.8084 135.135 81.6466C135.135 80.2524 133.941 79.5553 132.509 79.5553C131.619 79.5509 130.763 79.8843 130.122 80.4847L130.122 80.2524C130.225 79.9478 130.414 79.6775 130.667 79.4721C130.92 79.2667 131.228 79.1346 131.554 79.0905C132.27 78.8582 132.748 78.8582 133.703 78.8582C134.224 78.8895 134.737 78.7229 135.135 78.3934L135.613 76.5345ZM131.315 83.2731C131.077 83.2731 130.838 82.8084 130.838 82.8084C130.838 82.3437 131.077 81.8789 131.077 81.6466C131.315 81.1818 131.554 81.1818 131.793 81.1818C132.27 81.1818 132.27 81.4142 132.27 81.6466L132.27 82.1113C132.032 82.576 131.793 83.2731 131.315 83.2731ZM135.851 79.3229L138.477 79.3229L138.477 82.576L138.716 82.576L139.91 79.3229L142.536 79.3229L139.671 84.8997C138.716 86.2939 137.761 86.991 136.09 86.991C135.6 87.0278 135.109 86.9481 134.658 86.7586L134.896 85.1321C134.991 85.2202 135.104 85.2868 135.228 85.327C135.351 85.3671 135.483 85.38 135.613 85.3644C135.801 85.3884 135.993 85.3569 136.163 85.2741C136.333 85.1913 136.474 85.0609 136.568 84.8997L136.568 84.6673L135.851 79.3229ZM149.459 79.3229L143.968 79.3229L143.73 80.2524C143.491 81.4142 143.252 82.3437 142.297 83.0408L141.82 83.0408L141.104 86.0615L143.73 86.0615L143.968 84.6673L146.595 84.6673L146.356 86.0615L148.743 86.0615L149.459 83.0408L148.743 83.0408L149.459 79.3229ZM146.117 83.0408L144.685 83.0408C145.401 82.3437 145.64 81.8789 145.64 81.1818L145.878 80.7171L146.595 80.7171L146.117 83.0408ZM150.176 79.3229L153.041 79.3229L153.041 82.576L154.473 79.3229L157.099 79.3229L153.995 84.8997C153.279 86.2939 152.086 86.991 150.653 86.991C150.086 87.0283 149.516 86.9492 148.982 86.7586L149.221 85.1321C149.511 85.2941 149.841 85.3746 150.176 85.3644C150.364 85.3884 150.556 85.3569 150.726 85.2741C150.896 85.1913 151.037 85.0609 151.131 84.8997L151.131 84.6673L150.176 79.3229ZM157.577 79.3229L156.383 84.6673L163.784 84.6673L163.545 86.0615L165.932 86.0615L166.41 83.0408L165.694 83.0408L166.649 79.3229L164.023 79.3229L163.306 83.0408L162.351 83.0408L163.306 79.3229L160.919 79.3229L159.964 83.0408L159.248 83.0408L159.964 79.3229L157.577 79.3229ZM173.333 82.576L173.572 82.3437L173.572 80.4847C173.333 80.02 172.856 79.0905 170.946 79.0905C170.459 79.0727 169.974 79.149 169.518 79.315C169.062 79.481 168.644 79.7334 168.289 80.0575C167.934 80.3817 167.648 80.7711 167.448 81.2034C167.249 81.6357 167.139 82.1023 167.126 82.576C167.117 82.8815 167.177 83.1851 167.301 83.4659C167.424 83.7468 167.609 83.9981 167.842 84.2026C168.559 84.6673 169.514 84.6673 169.991 84.6673C170.873 84.6955 171.755 84.6175 172.617 84.435L172.856 83.0408C172.177 83.3301 171.448 83.4879 170.707 83.5055C169.752 83.5055 169.514 82.8084 169.752 82.576L173.333 82.576ZM169.991 81.4142C169.991 80.4847 170.707 80.4847 170.707 80.4847C170.946 80.4847 171.423 80.4847 171.423 80.9495C171.423 81.1818 171.423 81.1818 171.185 81.4142L169.991 81.4142ZM179.063 80.7171L179.541 79.3229L174.766 79.3229L173.811 84.6673L176.437 84.6673L177.153 80.7171L179.063 80.7171ZM183.599 79.0905C185.748 79.0905 186.464 80.2524 186.464 81.4142C186.464 83.0408 185.032 84.6673 182.405 84.6673C179.779 84.6673 179.302 83.2731 179.302 82.576C179.302 80.9495 180.734 79.0905 183.599 79.0905ZM183.122 80.7171C182.998 80.7251 182.881 80.7766 182.793 80.8621C182.705 80.9476 182.652 81.0612 182.644 81.1818C182.405 81.4142 182.167 82.3437 182.167 82.576C182.167 83.0408 182.405 83.2731 182.644 83.2731C183.122 83.2731 183.122 82.8084 183.36 82.576C183.36 82.1113 183.599 81.6466 183.599 81.1818C183.599 80.9495 183.599 80.7171 183.122 80.7171ZM188.135 77.464L187.658 81.8789L189.568 81.8789L191 77.464L188.135 77.464ZM187.18 82.576L186.941 84.6673L189.09 84.6673L189.568 82.576L187.18 82.576ZM185.509 61.663L182.405 65.3809L183.36 69.7958L188.135 69.7958L186.703 65.3809L190.045 61.663L185.509 61.663ZM166.887 61.663L164.261 69.7958L168.559 69.7958L169.514 66.7751L171.901 66.7751L170.946 69.7958L175.243 69.7958L177.869 61.663L173.572 61.663L172.856 64.219L170.23 64.219L171.185 61.663L166.887 61.663ZM146.595 62.1277C147.911 61.7272 149.275 61.4929 150.653 61.4306C152.086 61.4306 152.802 61.663 153.518 62.1277C154.036 62.8814 154.287 63.7787 154.234 64.6838C154.234 64.9161 153.995 65.1485 153.995 65.6132L153.279 67.0074C152.954 67.527 152.552 67.9968 152.086 68.4016C151.608 68.634 151.131 69.0987 150.414 69.3311C149.728 69.5958 149.003 69.7527 148.266 69.7958C147.788 70.0282 147.311 70.0282 146.595 70.0282C145.851 70.0383 145.115 69.8791 144.446 69.5635L145.162 74.6756L141.342 74.6756L141.342 70.4929L139.194 74.6756L135.374 74.6756L134.658 70.4929L133.225 74.6756L129.405 74.6756L132.986 67.0074L137.045 67.0074L138 70.7253L139.671 67.0074L142.297 67.0074L142.297 65.8456L143.491 62.1277C143.968 60.9659 144.446 60.2688 145.401 59.5717C146.356 58.8746 147.311 58.6422 148.505 58.4099C149.459 58.1775 150.653 58.1775 152.086 57.9451L154.95 57.9451L153.995 60.9659C153.068 60.6795 152.103 60.5231 151.131 60.5012C150.414 60.5012 149.698 60.7335 148.982 60.7335C148.266 60.9659 147.788 60.9659 147.311 61.1983C146.833 61.4306 146.595 61.663 146.595 61.8954L146.595 62.1277ZM159.009 69.7958C158.607 69.8504 158.208 69.928 157.815 70.0282L156.622 70.0282C155.428 70.0282 154.712 69.7958 154.234 69.3311C153.757 68.8664 153.518 68.4016 153.757 67.7045C153.995 67.0074 154.234 66.5427 154.712 66.3103C154.95 65.8456 155.428 65.6132 155.905 65.3809C156.383 65.3809 157.099 65.1485 157.815 65.1485C158.532 64.9161 159.009 64.9161 159.725 64.6838L160.203 64.6838L160.68 64.219L160.441 63.9867L159.725 63.9867C158.77 63.9867 157.577 64.219 155.667 64.6838L156.86 62.1277C158.77 61.8954 160.203 61.663 161.396 61.663C162.371 61.6644 163.339 61.8214 164.261 62.1277C164.408 62.1649 164.545 62.2322 164.663 62.3251C164.781 62.418 164.877 62.5344 164.945 62.6665C165.013 62.7985 165.051 62.9432 165.056 63.0908C165.062 63.2383 165.035 63.3853 164.977 63.5219L163.068 69.7958L159.009 69.7958ZM159.725 67.7045L159.964 66.7751C159.591 66.9436 159.181 67.0232 158.77 67.0074C158.646 67.1401 158.476 67.223 158.293 67.2398L158.054 67.4722L158.054 67.9369L159.009 67.9369C159.234 67.8232 159.475 67.7448 159.725 67.7045ZM66.3784 70.9546C66.1797 69.1023 66.1 67.2397 66.1396 65.3778L63.2748 69.7927L58.9775 69.7927L64.9459 61.6599L69.7207 61.6599L70.1982 67.0074C71.3919 67.0074 72.5856 66.7751 73.5405 66.7751C74.265 66.7372 74.9909 66.8157 75.6892 67.0074C76.2641 67.197 76.8228 67.4301 77.3604 67.7045C78.0766 68.4016 77.8378 69.5635 77.1216 70.2606C76.8829 70.7253 76.4054 70.9577 76.1667 71.1901C75.7311 71.4477 75.2415 71.6065 74.7342 71.6548C74.2568 71.8872 73.5405 71.8872 72.8243 71.8872C72.7005 72.0198 72.5302 72.1027 72.3468 72.1195L72.1081 72.3519C72.1081 72.5843 72.1081 72.5843 72.3468 72.5843C72.3468 72.8166 72.5856 72.8166 73.0631 72.8166C73.7803 72.8166 74.974 72.5843 76.6441 72.1195L75.9279 74.4432C74.584 74.6297 73.2265 74.7074 71.8694 74.6756C70.6757 74.6756 69.7207 74.6756 69.0045 74.2108C68.2883 73.9785 67.8108 73.5137 67.8108 72.8166C67.9742 72.2012 68.3039 71.6395 68.7657 71.19C69.2276 70.7405 69.8046 70.4196 70.4369 70.2606C71.2453 70.1747 72.0442 70.0192 72.8243 69.7958L73.5405 69.7958L73.5405 69.3311C73.7793 69.3311 73.5405 69.0987 73.3018 69.0987C73.1012 68.9371 72.8457 68.8542 72.5856 68.8664C70.1982 68.8664 68.527 70.2606 66.3784 70.9577L66.3784 70.9546ZM36.0586 71.4193L35.1036 74.4401L66.1396 74.4401L66.8559 71.4193L36.0586 71.4193ZM43.4595 62.5894L45.6081 62.5894C46.5631 62.5894 47.2793 62.5894 47.9955 63.0541C48.2739 63.1748 48.5114 63.3698 48.6804 63.6166C48.8494 63.8634 48.9431 64.1518 48.9504 64.4483C49.1911 65.0458 49.1911 65.7097 48.9504 66.3072C48.7117 66.772 48.473 67.4691 47.9955 67.9338C47.4908 68.4549 46.9306 68.9222 46.3243 69.328C45.6081 69.5604 45.1306 69.7927 44.4144 69.7927L36.536 69.7927L39.8784 58.8715L49.6667 58.8715L48.9504 61.8923L43.6982 61.8923L43.4595 62.5894ZM59.2162 67.0074C57.9629 67.2908 56.6828 67.4466 55.3964 67.4722C54.2027 67.4722 53.7252 67.0074 53.7252 66.3103L59.9324 66.3103L59.9324 65.8456C60.1712 65.6132 60.1712 65.6132 60.1712 65.3809C60.4118 64.7834 60.4118 64.1195 60.1712 63.5219C59.9324 62.8248 59.6937 62.3601 58.9775 62.1277C57.545 61.1983 55.6351 61.4306 53.964 61.8954C53.2069 62.1066 52.4837 62.4194 51.8153 62.8248L50.3829 64.219C50.1441 64.9161 49.9054 65.3809 49.9054 65.8456C49.4279 67.2398 49.6667 68.4016 50.3829 68.8664C52.2928 70.493 55.1577 69.7958 57.545 69.5635L59.2162 67.0074ZM54.2027 64.9161C54.4414 64.4514 54.4414 64.219 54.9189 63.9867C55.1164 63.8162 55.3712 63.722 55.6351 63.722C55.8991 63.722 56.1539 63.8162 56.3513 63.9867L56.3513 64.9161L54.2027 64.9161ZM82.3739 74.6756L86.4324 74.6756L87.1486 68.8664C87.1413 68.5699 87.0476 68.2815 86.8786 68.0347C86.7096 67.7879 86.4721 67.5928 86.1937 67.4722C85.2713 67.1659 84.3035 67.0089 83.3288 67.0074C81.9599 66.969 80.5926 67.1255 79.2703 67.4722L78.5541 69.7958C80.2263 69.3311 81.42 69.0987 82.1351 69.0987L82.8513 69.0987L83.0901 69.3311C83.0901 69.5635 82.8513 69.5635 82.8513 69.7958L82.3739 69.7958C81.8964 70.0282 81.1802 70.0282 80.464 70.0282C79.9865 70.2606 79.509 70.2606 79.0315 70.493C78.6034 70.6724 78.202 70.9068 77.8378 71.1901C77.5731 71.614 77.4099 72.0905 77.3604 72.5843C77.1216 73.2814 77.3604 73.7461 78.0766 74.2108C78.5541 74.6756 79.2703 74.9079 80.2252 74.9079C80.7027 74.9079 80.9414 74.6756 81.4189 74.6756L82.3739 74.6756ZM88.5811 67.4722C89.9822 67.1124 91.4303 66.9558 92.8784 67.0074C94.3108 67.0074 95.2658 67.2398 95.7432 67.4722C95.9765 67.6767 96.1614 67.928 96.285 68.2088C96.4087 68.4897 96.4682 68.7933 96.4595 69.0987C96.3999 69.4482 96.2335 69.7721 95.982 70.0282C95.5045 70.2606 95.2658 70.4929 94.7883 70.7253C95.2164 70.9047 95.6179 71.1392 95.982 71.4224C96.2207 71.6548 96.2207 72.1195 96.2207 72.5843L96.2207 72.8166C95.982 73.2814 95.7432 73.7461 95.2658 73.9785C94.7883 74.4432 94.3108 74.4432 93.5946 74.6756C92.8784 74.9079 92.1622 74.9079 91.2072 74.9079C90.0879 74.9383 88.9683 74.8605 87.8649 74.6756L87.8649 72.3519C88.8198 72.5843 90.0135 73.049 91.2072 73.049C91.4459 73.049 91.9234 73.049 92.1622 72.8166C92.4009 72.5843 92.6396 72.3519 92.6396 72.1195C92.6396 71.6548 92.1622 71.1901 91.4459 70.7253C91.6847 70.7253 91.9234 70.4929 92.1622 70.2606C92.2861 70.2526 92.4028 70.2011 92.4907 70.1156C92.5785 70.0301 92.6314 69.9165 92.6396 69.7958C92.6396 69.3311 92.6396 69.3311 92.1622 69.0987L91.6847 69.0987C90.4561 69.1054 89.2403 69.3421 88.1036 69.7958L88.5811 67.4722ZM114.365 69.3311C114.842 69.5635 115.081 70.2606 115.081 70.9577C115.081 71.6548 114.365 72.3519 113.649 72.1195C113.171 72.1195 112.932 71.4224 112.932 70.7253C113.172 69.7958 113.65 69.3311 114.365 69.3311ZM97.8919 67.0074L101.712 67.0074L101.712 67.7045C102.134 67.3479 102.628 67.081 103.163 66.921C103.697 66.7609 104.26 66.7112 104.815 66.7751C105.305 66.7383 105.797 66.818 106.248 67.0074C106.725 67.2398 107.203 67.4722 107.441 67.9369C107.68 68.4016 107.919 68.8664 107.68 69.3311L107.203 74.6756L103.144 74.6756L103.622 70.7253C103.638 70.5992 103.624 70.4711 103.583 70.3505C103.542 70.2299 103.473 70.1198 103.383 70.0282C103.144 69.7958 103.144 69.7958 102.905 69.7958C102.428 69.7958 102.189 69.7958 101.95 70.2606C101.473 70.4929 101.473 70.7253 101.234 71.4224L100.995 74.6756L96.9369 74.6756L97.8919 67.0074ZM124.153 69.7958C123.902 70.0519 123.735 70.3758 123.676 70.7253C123.639 71.1269 123.722 71.5303 123.914 71.8872C124.153 72.1195 124.392 72.3519 124.631 72.3519C124.992 72.3018 125.327 72.1387 125.586 71.8873C125.844 71.6359 126.012 71.3097 126.063 70.9577C126.1 70.5561 126.017 70.1527 125.824 69.7958C125.586 69.5635 125.347 69.3311 125.108 69.3311C124.869 69.3311 124.631 69.5635 124.153 69.7958ZM123.676 67.0074C122.599 67.1822 121.601 67.6679 120.811 68.4016C120.319 69.1268 119.918 69.907 119.617 70.7253C119.661 71.4426 119.823 72.1485 120.095 72.8166C120.443 73.3919 120.936 73.8716 121.527 74.2108C122.372 74.4979 123.258 74.6547 124.153 74.6756L125.824 74.6756C126.302 74.4432 127.018 74.4432 127.495 74.2108C127.938 73.9598 128.34 73.6466 128.689 73.2814C129.167 72.8166 129.405 72.3519 129.644 72.1195C129.909 71.6956 130.072 71.2191 130.122 70.7253L130.122 69.7958C130.122 69.3311 129.883 69.0987 129.644 68.634C129.456 68.219 129.116 67.8874 128.689 67.7045C128.45 67.2398 127.973 67.2398 127.495 67.0074C126.879 66.8162 126.231 66.7374 125.586 66.7751C124.94 66.7508 124.295 66.8293 123.676 67.0074ZM109.351 67.2398L107.919 77.9287L111.977 77.9287L112.455 74.2108C113.341 74.6585 114.322 74.8973 115.32 74.9079C115.908 74.8943 116.484 74.7343 116.991 74.4432C117.582 74.104 118.075 73.6243 118.423 73.049C118.722 72.4713 118.885 71.8364 118.901 71.19C119.14 70.2606 118.901 69.5635 118.662 68.634C117.946 67.4722 116.514 67.0074 113.887 67.0074L112.216 67.0074C111.649 66.9852 111.083 67.064 110.545 67.2398L109.351 67.2398ZM82.6126 72.5843C82.5185 72.6724 82.4053 72.7389 82.2815 72.7791C82.1576 72.8193 82.026 72.8321 81.8964 72.8166L81.4189 72.8166C81.1802 72.8166 81.1802 72.5843 81.1802 72.3519L81.4189 72.1195L81.6577 72.1195C82.1351 71.8872 82.6126 71.8872 82.8513 71.6548L82.6126 72.5843ZM147.55 64.4514C147.311 64.9161 146.833 65.3809 146.833 65.8456C146.718 65.9743 146.654 66.1394 146.654 66.3103C146.654 66.4812 146.718 66.6464 146.833 66.7751C146.833 67.2398 147.072 67.2398 147.55 67.2398C147.771 67.2504 147.992 67.2143 148.198 67.1341C148.404 67.0539 148.59 66.9315 148.743 66.7751C149.038 66.5103 149.281 66.1953 149.459 65.8456L149.459 64.9161C149.475 64.79 149.462 64.6619 149.421 64.5414C149.38 64.4208 149.311 64.3107 149.221 64.219C149.092 64.0928 148.924 64.0111 148.743 63.9867C148.322 64.0785 147.919 64.2354 147.55 64.4514ZM92.4009 51.2065C93.5946 49.8123 96.4595 50.5094 99.0856 51.4389L99.0856 52.136C99.0856 55.3891 100.518 57.9451 102.905 59.3393C101.234 59.3393 99.5631 58.8746 97.4144 57.7128C93.8333 55.6215 91.2072 52.8331 92.4009 51.2065ZM124.631 57.0126C126.063 58.4068 122.482 59.5686 117.707 60.0333C116.684 60.2176 115.644 60.2955 114.604 60.2657C115.361 60.0545 116.084 59.7417 116.752 59.3362C118.172 58.4193 119.39 57.2353 120.333 55.8538C122.243 56.0862 123.914 56.3186 124.631 57.0157L124.631 57.0126ZM92.4009 55.6184C91.2072 53.7594 90.9685 52.1329 91.9234 50.7386C92.6396 49.5768 95.982 49.3444 99.0856 50.5063C99.8018 46.7884 102.905 44 106.486 44C110.306 44 113.171 46.7884 113.887 50.5063C117.23 49.3444 120.333 49.5768 121.288 50.7386C122.243 52.1329 121.766 53.7594 120.572 55.6184C122.959 55.8507 124.869 56.3155 125.586 57.0126C127.257 58.6391 123.914 60.4981 118.901 61.1952C115.797 61.6599 109.351 62.1246 106.486 60.4981C103.86 62.1246 97.4144 61.6599 94.3108 61.1952C89.2973 60.4981 85.955 58.6391 87.6261 57.0126C88.3423 56.3155 90.0135 55.8507 92.4009 55.6184ZM88.3423 57.0126C87.1486 58.4068 90.7297 59.5686 95.5045 60.0333C96.5265 60.226 97.5678 60.304 98.6081 60.2657C97.8919 60.0333 97.1757 59.5686 96.4595 59.3362C95.027 58.4068 93.5946 57.2449 92.8784 55.8507C90.9685 56.0831 89.2973 56.3155 88.3423 57.0126ZM106.486 44.9295C109.59 44.9295 111.977 47.7179 112.216 51.2034C111.977 51.4357 111.5 51.6681 111.261 51.9005C111.023 52.1329 110.545 52.1328 110.306 52.3652L110.306 53.7594C110.944 53.1888 111.669 52.7184 112.455 52.3652C112.216 56.3155 109.829 59.5717 106.486 59.5717C103.383 59.5717 100.757 56.3186 100.757 52.3683C101.543 52.7215 102.268 53.1919 102.905 53.7625L102.667 52.3683C102.428 52.1359 102.189 52.136 101.95 51.9036C101.586 51.6204 101.185 51.3859 100.757 51.2065C101.234 47.7179 103.622 44.9295 106.486 44.9295Z" fill="white" fill-opacity="0.6"/>
</g>
<rect x="0.5" y="130.5" width="130" height="221" rx="9.5" transform="rotate(-90 0.5 130.5)" stroke="white" stroke-opacity="0.2"/>
<defs>
<clipPath id="clip0_101_105">
<rect y="131" width="131" height="222" rx="10" transform="rotate(-90 0 131)" fill="white"/>
</clipPath>
</defs>
</svg>
