<svg width="222" height="131" viewBox="0 0 222 131" fill="none" xmlns="http://www.w3.org/2000/svg">
<g clip-path="url(#clip0_101_112)">
<mask id="mask0_101_112" style="mask-type:luminance" maskUnits="userSpaceOnUse" x="57" y="31" width="108" height="70">
<path d="M57 31H164.464V100.821H57V31Z" fill="white"/>
</mask>
<g mask="url(#mask0_101_112)">
<path d="M88.6859 64.1154H106.805L106.716 59.8077H89.4C88.7752 59.8077 88.5074 59.5385 88.5074 59V54.4231H104.306V50.2051H88.5074V45.8974C88.5074 45.359 88.7752 45 89.4 45H106.805V40.6923H89.043C85.1157 40.6923 83.4198 41.9487 83.4198 45.9872V59.0897C83.4198 62.4103 84.9372 64.1154 88.6859 64.1154ZM62.6231 64.1154H75.476C79.5818 64.1154 80.9207 62.6795 80.9207 59.0897V54.6923C80.9207 51.1026 79.5818 49.6667 75.476 49.6667H62.0876V45.8974C62.0876 45.359 62.3554 45.0897 62.9802 45.0897H79.7603L79.8496 40.6923H62.2661C58.5174 40.6923 57 42.3077 57 45.7179V58.8205C57 62.859 58.7851 64.1154 62.6231 64.1154ZM62.0876 53.9744H74.8512C75.476 53.9744 75.7438 54.2436 75.7438 54.8718V58.9103C75.7438 59.5385 75.476 59.8077 74.8512 59.8077H62.9802C62.3554 59.8077 62.0876 59.5385 62.0876 59V53.9744ZM123.407 46.6154C123.674 46.1667 124.121 45.8974 124.656 45.8974H127.334V64.1154H132.421V40.6923H123.317C121.979 40.6923 120.64 41.5 120.015 42.6667L108.679 64.1154H114.035L123.407 46.6154ZM124.121 86.3718H114.749V81.7051H131.261V77.3077H109.572V100.731H123.942C130.101 100.731 132.6 97.5897 132.6 93.4615C132.689 89.4231 130.279 86.3718 124.121 86.3718ZM124.121 96.5128H114.749V90.7692H124.21C126.531 90.7692 127.423 92.1154 127.423 93.641C127.423 95.1667 126.531 96.5128 124.121 96.5128ZM147.863 31L138.223 40.6923H154.914V57.4744L164.554 47.7821V31H147.863ZM148.398 32.2564H161.162L142.418 38.2692L148.398 32.2564ZM163.215 47.2436L156.164 54.3333V39.4359H143.489L163.215 32.9744V47.2436ZM132.511 68.5128H57V73H132.511V68.5128ZM95.4694 77.3974H83.8661V81.7949H94.9339C98.2364 81.7949 100.557 83.859 101.36 87H86.3653V91.218H101.271C100.557 94.4487 98.1471 96.4231 94.8446 96.4231H83.8661V100.821H95.3802C102.164 100.821 106.894 96.0641 106.894 89.0641C106.894 82.1538 102.253 77.3974 95.4694 77.3974ZM77.5289 88.6154C79.4926 87.6282 80.3851 86.0128 80.3851 83.859C80.3851 80 77.7967 77.3974 71.7273 77.3974H57V100.821H72.5306C78.6893 100.821 81.1884 97.9487 81.1884 94.0898C81.1884 91.4872 80.1174 89.6026 77.5289 88.6154ZM62.0876 81.7051H71.7273C74.0479 81.7051 74.9405 83.141 74.9405 84.5769C74.9405 86.0128 74.0479 87.1795 71.7273 87.1795H62.0876V81.7051ZM72.7091 96.5128H62.0876V90.859H72.6198C75.0298 90.859 75.9223 92.1154 75.9223 93.641C75.9223 95.1667 75.0298 96.5128 72.7091 96.5128Z" fill="#B2B2B2"/>
</g>
</g>
<rect x="0.5" y="130.5" width="130" height="221" rx="9.5" transform="rotate(-90 0.5 130.5)" stroke="white" stroke-opacity="0.2"/>
<defs>
<clipPath id="clip0_101_112">
<rect y="131" width="131" height="222" rx="10" transform="rotate(-90 0 131)" fill="white"/>
</clipPath>
</defs>
</svg>
