<svg width="222" height="131" viewBox="0 0 222 131" fill="none" xmlns="http://www.w3.org/2000/svg">
<g clip-path="url(#clip0_101_71)">
<g clip-path="url(#clip1_101_71)">
<path d="M128.863 59.4852V64.3588H132.157C135.716 64.3588 138.503 65.7792 138.503 69.5558C138.503 73.5265 135.355 74.5576 131.801 74.5576H126.396V57.3534H137.229V59.4852H128.863ZM128.863 66.5248V72.4173H131.931C133.845 72.4173 135.991 71.7742 135.991 69.5558C135.991 67.2984 134.272 66.5248 132.222 66.5248H128.863Z" fill="#B2B2B2"/>
<path d="M169.773 64.5467V57.3522H172.223V74.5576H169.773V66.6846H160.163V74.5576H157.691V57.3522H160.163V64.5467H169.773Z" fill="#B2B2B2"/>
<path d="M181.883 64.0416L190.194 74.5576H187.167L180.124 65.7328L177.567 68.1428V74.5576H175.111V57.3522H177.567V65.069L185.533 57.3522H188.816L181.883 64.0416Z" fill="#B2B2B2"/>
<mask id="mask0_101_71" style="mask-type:luminance" maskUnits="userSpaceOnUse" x="-286" y="-314" width="787" height="796">
<path d="M-285.539 481.756H500.778V-313.804H-285.539V481.756Z" fill="white"/>
</mask>
<g mask="url(#mask0_101_71)">
<path d="M148.675 57.3546H146.173L138.92 74.5576H141.466C141.466 74.5576 143.16 70.3466 143.216 70.2221H151.427C151.476 70.3466 153.166 74.5576 153.166 74.5576H155.823L148.675 57.3546ZM150.625 68.1428H144.032C144.139 67.8585 147.166 60.2783 147.347 59.8073C147.531 60.2783 150.514 67.8585 150.625 68.1428Z" fill="#B2B2B2"/>
</g>
<path d="M59.6618 42.8533H32.8027V97.2041H86.5148V88.1487H59.6618V42.8533Z" fill="#B2B2B2"/>
<path d="M113.379 33.7967H59.6621V42.8521H86.5151V88.1475H113.379V33.7967Z" fill="#B2B2B2"/>
<path d="M86.5151 88.1475H59.6621V42.8521H86.5151V88.1475Z" fill="#B2B2B2"/>
<path d="M65.793 57.3549V59.5257H71.8788V74.5579H74.3042V59.5257H80.39V57.3549H65.793Z" fill="white"/>
<mask id="mask1_101_71" style="mask-type:luminance" maskUnits="userSpaceOnUse" x="-286" y="-314" width="787" height="796">
<path d="M-285.539 481.756H500.778V-313.804H-285.539V481.756Z" fill="white"/>
</mask>
<g mask="url(#mask1_101_71)">
<path d="M101.495 57.3546H98.9936L91.75 74.5576H94.2815C94.2815 74.5576 95.9712 70.3466 96.0255 70.2221H104.247C104.303 70.3466 105.991 74.5576 105.991 74.5576H108.639L101.495 57.3546ZM103.445 68.1428H96.8529C96.9481 67.8585 99.9657 60.2783 100.161 59.8073C100.342 60.2783 103.34 67.8585 103.445 68.1428Z" fill="white"/>
<path d="M42.649 59.4849V64.3586H45.9222C49.497 64.3586 52.2878 65.7789 52.2878 69.5556C52.2878 73.5263 49.14 74.5574 45.5869 74.5574H40.1777V57.3532H50.9901V59.4849H42.649ZM42.649 66.5245V72.4171H45.7172C47.6216 72.4171 49.7672 71.774 49.7672 69.5556C49.7672 67.2982 48.0533 66.5245 46.003 66.5245H42.649Z" fill="white"/>
</g>
</g>
</g>
<rect x="0.5" y="130.5" width="130" height="221" rx="9.5" transform="rotate(-90 0.5 130.5)" stroke="white" stroke-opacity="0.2"/>
<defs>
<clipPath id="clip0_101_71">
<rect y="131" width="131" height="222" rx="10" transform="rotate(-90 0 131)" fill="white"/>
</clipPath>
<clipPath id="clip1_101_71">
<rect width="159" height="65" fill="white" transform="translate(32 33)"/>
</clipPath>
</defs>
</svg>
