<svg width="75" height="47" viewBox="0 0 75 47" fill="none" xmlns="http://www.w3.org/2000/svg">
<path d="M1 44.5L32.6374 1L54.6227 19" stroke="white"/>
<path d="M33.6568 32V28.403H30.5988V32H29.9168V24.3H30.5988V27.743H33.6568V24.3H34.3498V32H33.6568ZM38.6931 32.077C37.0651 32.077 36.1411 30.647 36.1411 28.15C36.1411 25.653 37.0651 24.223 38.6931 24.223C40.3101 24.223 41.2341 25.653 41.2341 28.15C41.2341 30.636 40.3101 32.077 38.6931 32.077ZM36.8451 28.15C36.8451 30.273 37.4941 31.428 38.6931 31.428C39.8811 31.428 40.5301 30.273 40.5301 28.15C40.5301 26.027 39.8811 24.872 38.6931 24.872C37.4941 24.872 36.8451 26.027 36.8451 28.15ZM43.0412 32V24.3H44.8672C46.1542 24.3 46.8802 25.015 46.8802 26.269C46.8802 27.149 46.5392 27.743 45.8682 28.029C46.6492 28.326 47.0672 28.975 47.0672 29.932C47.0672 31.241 46.2862 32 44.9222 32H43.0412ZM43.7232 31.384H44.8012C45.8352 31.384 46.3632 30.878 46.3632 29.877C46.3632 28.876 45.8352 28.37 44.8012 28.37H43.7232V31.384ZM43.7232 27.754H44.7572C45.7142 27.754 46.1982 27.27 46.1982 26.335C46.1982 25.4 45.7142 24.916 44.7572 24.916H43.7232V27.754ZM48.2605 32L50.5815 24.3H51.1205L53.4415 32H52.7155L52.1545 30.053H49.5475L48.9755 32H48.2605ZM49.7125 29.448H51.9895L50.8565 25.543L49.7125 29.448ZM58.2507 32V29.041H57.0517L55.5337 32H54.7747L56.3367 28.953C55.4017 28.7 54.8847 27.853 54.8847 26.676C54.8847 25.246 55.6437 24.3 56.9857 24.3H58.9437V32H58.2507ZM55.5667 26.687C55.5667 27.798 56.0617 28.436 57.0627 28.436H58.2617V24.927H57.0627C56.0727 24.927 55.5667 25.565 55.5667 26.687ZM29.9168 44V36.3H33.4258V36.949H30.5988V39.325H31.4568C32.9968 39.325 33.8438 40.15 33.8438 41.657C33.8438 43.175 32.9968 44 31.4568 44H29.9168ZM30.5988 43.351H31.3908C32.5678 43.351 33.1398 42.79 33.1398 41.657C33.1398 40.524 32.5678 39.963 31.3908 39.963H30.5988V43.351ZM37.8552 44.077C36.2272 44.077 35.3032 42.647 35.3032 40.15C35.3032 37.653 36.2272 36.223 37.8552 36.223C39.4722 36.223 40.3962 37.653 40.3962 40.15C40.3962 42.636 39.4722 44.077 37.8552 44.077ZM36.0072 40.15C36.0072 42.273 36.6562 43.428 37.8552 43.428C39.0432 43.428 39.6922 42.273 39.6922 40.15C39.6922 38.027 39.0432 36.872 37.8552 36.872C36.6562 36.872 36.0072 38.027 36.0072 40.15ZM42.2033 44V36.3H43.8203C45.2613 36.3 46.1413 37.158 46.1413 38.786C46.1413 40.425 45.2613 41.283 43.8203 41.283H42.8853V44H42.2033ZM42.8743 40.656H43.7433C44.8653 40.656 45.4373 40.062 45.4373 38.797C45.4373 37.532 44.8653 36.927 43.7433 36.927H42.8743V40.656ZM50.088 44.077C48.46 44.077 47.536 42.647 47.536 40.15C47.536 37.653 48.46 36.223 50.088 36.223C51.705 36.223 52.629 37.653 52.629 40.15C52.629 42.636 51.705 44.077 50.088 44.077ZM48.24 40.15C48.24 42.273 48.889 43.428 50.088 43.428C51.276 43.428 51.925 42.273 51.925 40.15C51.925 38.027 51.276 36.872 50.088 36.872C48.889 36.872 48.24 38.027 48.24 40.15ZM54.4361 44V36.3H56.2621C57.5491 36.3 58.2751 37.015 58.2751 38.269C58.2751 39.149 57.9341 39.743 57.2631 40.029C58.0441 40.326 58.4621 40.975 58.4621 41.932C58.4621 43.241 57.6811 44 56.3171 44H54.4361ZM55.1181 43.384H56.1961C57.2301 43.384 57.7581 42.878 57.7581 41.877C57.7581 40.876 57.2301 40.37 56.1961 40.37H55.1181V43.384ZM55.1181 39.754H56.1521C57.1091 39.754 57.5931 39.27 57.5931 38.335C57.5931 37.4 57.1091 36.916 56.1521 36.916H55.1181V39.754ZM59.6554 44L61.9764 36.3H62.5154L64.8364 44H64.1104L63.5494 42.053H60.9424L60.3704 44H59.6554ZM61.1074 41.448H63.3844L62.2514 37.543L61.1074 41.448ZM69.6455 44V41.041H68.4465L66.9285 44H66.1695L67.7315 40.953C66.7965 40.7 66.2795 39.853 66.2795 38.676C66.2795 37.246 67.0385 36.3 68.3805 36.3H70.3385V44H69.6455ZM66.9615 38.687C66.9615 39.798 67.4565 40.436 68.4575 40.436H69.6565V36.927H68.4575C67.4675 36.927 66.9615 37.565 66.9615 38.687Z" fill="white"/>
</svg>
