<svg width="361" height="237" viewBox="0 0 361 237" fill="none" xmlns="http://www.w3.org/2000/svg">
<g clip-path="url(#clip0_101_167)">
<rect y="237" width="237" height="361" rx="10" transform="rotate(-90 0 237)" fill="#313131"/>
<mask id="mask0_101_167" style="mask-type:luminance" maskUnits="userSpaceOnUse" x="102" y="74" width="158" height="90">
<path d="M102.34 74L259.785 74L259.785 164L102.34 164L102.34 74Z" fill="white"/>
</mask>
<g mask="url(#mask0_101_167)">
<path d="M148.763 116.686L175.309 116.686L175.178 111.134L149.809 111.134C148.893 111.134 148.501 110.787 148.501 110.093L148.501 104.193L171.647 104.193L171.647 98.7558L148.501 98.7558L148.501 93.2031C148.501 92.509 148.893 92.0463 149.809 92.0463L175.309 92.0463L175.309 86.4936L149.286 86.4936C143.532 86.4936 141.047 88.1131 141.047 93.3188L141.047 110.208C141.047 114.488 143.27 116.686 148.763 116.686ZM110.578 116.686L129.409 116.686C135.424 116.686 137.386 114.835 137.386 110.208L137.386 104.54C137.386 99.9126 135.424 98.0617 129.409 98.0617L109.794 98.0617L109.794 93.2031C109.794 92.509 110.186 92.162 111.101 92.162L135.686 92.162L135.817 86.4936L110.055 86.4936C104.563 86.4936 102.34 88.5758 102.34 92.9717L102.34 109.861C102.34 115.067 104.955 116.686 110.578 116.686ZM109.794 103.614L128.494 103.614C129.409 103.614 129.801 103.961 129.801 104.771L129.801 109.977C129.801 110.787 129.409 111.134 128.494 111.134L111.101 111.134C110.186 111.134 109.794 110.787 109.794 110.093L109.794 103.614ZM199.632 94.1285C200.024 93.5501 200.678 93.2031 201.463 93.2031L205.386 93.2031L205.386 116.686L212.839 116.686L212.839 86.4936L199.501 86.4936C197.539 86.4936 195.578 87.5347 194.663 89.0386L178.055 116.686L185.901 116.686L199.632 94.1285ZM200.678 145.375L186.947 145.375L186.947 139.36L211.139 139.36L211.139 133.692L179.363 133.692L179.363 163.884L200.416 163.884C209.439 163.884 213.101 159.835 213.101 154.514C213.232 149.308 209.701 145.375 200.678 145.375ZM200.678 158.447L186.947 158.447L186.947 151.044L200.809 151.044C204.209 151.044 205.516 152.779 205.516 154.746C205.516 156.712 204.209 158.447 200.678 158.447ZM235.462 74L221.339 86.4936L245.793 86.4936L245.793 108.126L259.916 95.6324L259.916 74L235.462 74ZM236.247 75.6195L254.947 75.6195L227.485 83.3702L236.247 75.6195ZM257.955 94.9383L247.624 104.077L247.624 84.874L229.055 84.874L257.955 76.545L257.955 94.9383ZM212.97 122.355L102.34 122.355L102.34 128.139L212.97 128.139L212.97 122.355ZM158.701 133.807L141.701 133.807L141.701 139.476L157.917 139.476C162.755 139.476 166.155 142.136 167.332 146.185L145.363 146.185L145.363 151.622L167.201 151.622C166.155 155.787 162.624 158.332 157.786 158.332L141.701 158.332L141.701 164L158.57 164C168.509 164 175.44 157.869 175.44 148.846C175.44 139.938 168.64 133.807 158.701 133.807ZM132.417 148.267C135.294 146.995 136.601 144.913 136.601 142.136C136.601 137.162 132.809 133.807 123.917 133.807L102.34 133.807L102.34 164L125.094 164C134.117 164 137.778 160.298 137.778 155.324C137.778 151.969 136.209 149.54 132.417 148.267ZM109.794 139.36L123.917 139.36C127.317 139.36 128.624 141.211 128.624 143.062C128.624 144.913 127.317 146.416 123.917 146.416L109.794 146.416L109.794 139.36ZM125.355 158.447L109.794 158.447L109.794 151.159L125.224 151.159C128.755 151.159 130.063 152.779 130.063 154.746C130.063 156.712 128.755 158.447 125.355 158.447Z" fill="#B2B2B2"/>
</g>
</g>
<defs>
<clipPath id="clip0_101_167">
<rect y="237" width="237" height="361" rx="10" transform="rotate(-90 0 237)" fill="white"/>
</clipPath>
</defs>
</svg>
