<svg width="361" height="237" viewBox="0 0 361 237" fill="none" xmlns="http://www.w3.org/2000/svg">
<g clip-path="url(#clip0_101_146)">
<rect y="237" width="237" height="361" rx="10" transform="rotate(-90 0 237)" fill="#313131"/>
<g clip-path="url(#clip1_101_146)">
<path fill-rule="evenodd" clip-rule="evenodd" d="M295.999 128.595L294.732 128.538L293.501 128.486L292.234 128.542L290.997 128.595L284.612 119.621V128.595L283.493 128.538L282.399 128.486L281.304 128.542L280.185 128.595V109.509L281.147 109.608L282.399 109.674L283.018 109.66L283.763 109.594L284.612 109.509V118.059C285.388 117.201 286.247 116.237 287.184 115.171C287.975 114.273 288.819 113.292 289.731 112.225C290.517 111.3 291.361 110.604 292.264 109.509L292.853 109.594L293.383 109.66L293.859 109.674C293.952 109.674 294.075 109.669 294.217 109.66C294.359 109.651 294.536 109.632 294.748 109.608L295.41 109.509V109.731C294.748 110.34 294.065 110.92 293.364 111.614C292.656 112.313 291.936 112.801 291.199 113.566C289.692 115.143 288.559 116.375 287.788 117.271L295.999 128.221V128.595ZM272.883 128.486L271.804 128.542L270.699 128.595V119.136C269.914 119.136 269.167 119.126 268.461 119.102C267.759 119.079 267.003 119.055 266.198 119.027C265.928 119.027 265.295 119.046 264.299 119.079C263.298 119.116 262.429 119.136 261.693 119.136V128.595L260.574 128.538L259.48 128.486H259.018C258.753 128.514 258.537 128.533 258.375 128.542L257.266 128.595V109.509L258.129 109.594L258.86 109.66L259.48 109.674L260.098 109.66L260.844 109.594L261.693 109.509V116.87C262.507 116.87 263.283 116.884 264.014 116.918C264.75 116.951 265.476 116.979 266.198 117.007C266.837 116.969 267.592 116.941 268.461 116.913C269.329 116.884 270.076 116.87 270.699 116.87V109.509L271.548 109.594L272.265 109.66L272.883 109.674L273.53 109.646L274.277 109.594L275.111 109.509V128.595L274.016 128.538L272.883 128.486ZM251.789 128.486L250.527 128.542L249.291 128.595C248.922 127.472 248.652 126.645 248.471 126.121C248.152 125.206 247.921 124.554 247.779 124.158C247.597 123.657 247.406 123.176 247.205 122.704H240.343L239.617 124.687L238.817 126.882L238.273 128.572L237.609 128.528L236.893 128.486L236.206 128.528L235.484 128.572L243.911 109.259C244.285 109.315 244.652 109.344 245.016 109.344C245.374 109.344 245.747 109.315 246.14 109.259L254.365 128.595L253.07 128.538L251.789 128.486ZM243.911 114.382L241.143 120.976H246.527L243.911 114.382ZM226.41 128.486H220.182V109.509H233.212C233.163 109.702 233.124 109.905 233.094 110.118C233.065 110.331 233.05 110.462 233.05 110.656C233.05 111.014 233.104 111.42 233.207 111.873C231.205 111.614 228.339 111.487 224.609 111.487V117.55H227.73C229.089 117.55 230.252 117.725 231.219 118.074C232.181 118.428 232.918 118.956 233.419 119.673C233.924 120.387 234.174 121.274 234.174 122.332C234.174 126.433 231.588 128.486 226.41 128.486ZM228.761 120.165C228.187 119.462 227.509 119.112 226.724 119.112H224.609V126.896C225.133 126.896 225.576 126.882 225.924 126.854C226.277 126.824 226.582 126.777 226.837 126.702C227.749 126.452 228.441 125.975 228.907 125.272C229.379 124.564 229.615 123.757 229.615 122.845C229.615 121.756 229.33 120.864 228.761 120.165ZM215.986 112.362C215.946 112.555 215.892 112.763 215.829 112.986H215.421C214.847 112.192 214.125 111.807 213.252 111.345C212.791 111.109 212.344 110.925 211.907 110.807C211.471 110.689 211.014 110.628 210.533 110.628C209.365 110.628 208.339 110.873 207.455 111.359C206.577 111.85 205.856 112.272 205.296 113.117C204.731 113.957 204.325 114.888 204.064 115.903C203.932 116.436 203.829 116.955 203.765 117.451C203.697 117.95 203.662 118.484 203.662 119.055C203.662 120.66 203.937 122.09 204.482 123.35C205.026 124.606 205.827 125.578 206.881 126.267C207.937 126.952 209.203 127.296 210.68 127.296C211.573 127.296 212.501 127.098 213.467 126.702C214.44 126.306 215.264 125.796 215.942 125.168L216.329 125.333L215.686 127.779C214.037 128.59 212.094 128.996 209.861 128.996C208.3 128.996 206.837 128.769 205.473 128.317C204.113 127.868 202.936 127.221 201.944 126.381C200.952 125.546 200.177 124.526 199.613 123.332C199.053 122.143 198.774 120.844 198.774 119.443C198.774 117.653 199.078 116.078 199.681 114.708C200.285 113.339 201.12 112.449 202.195 111.562C203.27 110.675 204.511 110.081 205.919 109.651C207.328 109.217 208.86 108.999 210.509 108.999C211.515 108.999 212.56 109.117 213.649 109.358C214.734 109.599 215.686 109.943 216.501 110.396L216.143 111.831C216.044 112.308 215.995 112.325 215.986 112.362ZM194.421 117.852C194.264 118.144 193.822 119.013 193.081 120.452C192.546 121.491 192.109 122.35 191.775 123.02C190.538 125.493 189.665 127.348 189.155 128.595L188.58 128.538L187.918 128.486L187.26 128.538L186.656 128.595C187 128.024 187.466 127.165 188.05 126.018L189.33 123.46C188.943 122.648 188.349 121.576 187.544 120.249C186.739 118.928 185.915 117.621 185.071 116.327L182.47 112.297C181.616 110.942 180.977 110.221 180.556 109.509L181.562 109.594L182.44 109.646L183.201 109.674L183.937 109.66L184.831 109.594L185.861 109.509C186.063 109.905 186.568 110.717 187.373 112.081L189.787 115.832C190.18 116.478 190.534 117.068 190.848 117.597C191.157 118.125 191.378 118.517 191.515 118.763C191.755 118.413 192.089 117.837 192.521 117.035C192.693 116.705 192.958 116.181 193.312 115.459C193.493 115.09 193.679 114.718 193.87 114.34L195.294 111.567L196.285 109.509C196.767 109.566 197.247 109.594 197.723 109.594C198.156 109.594 198.627 109.566 199.137 109.509C198.322 110.911 197.213 112.608 195.814 115.223C195.265 116.237 194.804 117.115 194.421 117.852ZM179.701 117.734C178.956 118.64 177.91 119.268 176.551 119.612C175.196 119.957 173.576 120.132 171.696 120.132V128.595L170.578 128.538L169.484 128.486H168.895C168.664 128.514 168.492 128.533 168.379 128.542L167.27 128.595V109.509H174.519C176.571 109.509 178.132 109.839 179.205 110.642C180.28 111.444 180.816 112.395 180.816 113.976C180.816 115.572 180.443 116.822 179.701 117.734ZM175.47 112.029C174.951 111.345 174.298 111 173.523 111H171.696V118.541C172.129 118.541 172.492 118.526 172.782 118.493C173.076 118.461 173.361 118.413 173.641 118.348C174.529 118.116 175.191 117.653 175.618 116.951C176.045 116.251 176.256 115.431 176.256 114.491C176.256 113.377 175.996 112.718 175.47 112.029ZM161.793 128.486L160.531 128.542L159.294 128.595C158.927 127.472 158.657 126.645 158.475 126.121C158.156 125.206 157.926 124.554 157.783 124.158C157.601 123.657 157.41 123.176 157.209 122.704H150.348L149.621 124.687L148.821 126.882L148.276 128.572L147.614 128.528L146.897 128.486L146.21 128.528L145.489 128.572L153.916 109.259C154.288 109.315 154.657 109.344 155.02 109.344C155.379 109.344 155.751 109.315 156.143 109.259L164.369 128.595L163.073 128.538L161.793 128.486ZM153.916 114.382L151.148 120.976H156.532L153.916 114.382ZM142.682 128.43L141.946 128.401L141.214 128.43C141.042 128.43 140.901 128.434 140.797 128.444C140.694 128.453 140.532 128.472 140.32 128.5L139.358 128.572C139.035 127.509 138.657 126.391 138.24 125.211C137.778 123.917 137.401 122.893 137.101 122.138L135.678 118.531L134.142 114.547C131.732 120.15 129.906 124.828 128.66 128.572C128.204 128.514 127.742 128.486 127.281 128.486C126.829 128.486 126.377 128.514 125.931 128.572L128.218 123.427L130.245 118.819L132.199 114.132C132.497 113.41 132.822 112.84 133.175 111.935C133.533 111.024 133.852 110.255 134.142 109.481L134.657 109.538C134.937 109.575 135.173 109.594 135.379 109.594H135.664L136.006 109.552L136.311 109.523L136.64 109.481C136.949 110.293 137.258 111.029 137.577 111.831C137.93 112.751 138.211 113.221 138.412 113.717L140.365 118.57L142.22 123.082L144.537 128.572L143.555 128.486L142.682 128.43ZM112.979 128.486V109.509H124.223C124.13 110.165 124.081 110.5 124.081 110.656C124.081 110.811 124.13 111.217 124.223 111.873C122.192 111.614 119.914 111.487 117.391 111.487V117.356H120.483C121.357 117.356 122.564 117.267 124.11 117.091C124.012 117.644 123.963 118.041 123.963 118.282C123.963 118.512 124.012 118.924 124.11 119.514C122.937 119.357 121.73 119.277 120.483 119.277H117.391V126.437C119.914 126.437 122.192 126.311 124.223 126.051C124.13 126.707 124.081 127.112 124.081 127.269L124.223 128.486H112.979ZM101.49 128.486H95.8134V109.509H108.292C108.243 109.702 108.203 109.905 108.175 110.118C108.145 110.331 108.13 110.462 108.13 110.656C108.13 111.014 108.184 111.42 108.287 111.873C106.284 111.614 103.419 111.487 99.6881 111.487V117.55H102.81C104.169 117.55 105.333 117.725 106.3 118.074C107.261 118.428 107.998 118.956 108.498 119.673C109.004 120.387 109.254 121.274 109.254 122.332C109.254 126.433 106.667 128.486 101.49 128.486ZM103.84 120.165C103.266 119.462 102.589 119.112 101.804 119.112H99.6881V126.896C100.214 126.896 100.655 126.882 101.004 126.854C101.357 126.824 101.661 126.777 101.917 126.702C102.83 126.452 103.522 125.975 103.988 125.272C104.459 124.564 104.695 123.757 104.695 122.845C104.695 121.756 104.41 120.864 103.84 120.165ZM64.998 109.5H85.5591V128.56H64.998V109.5ZM80.3303 126.588H83.4626V126.585C83.4626 121.227 80.6773 117.413 76.4618 114.495H83.5171V111.523H67.0575V114.495H67.9774C75.0286 114.957 80.3303 119.689 80.3303 126.585V126.588ZM67.0504 123.523C69.0955 123.652 70.1591 124.628 70.3008 126.593H73.2083C73.2083 126.588 73.2093 126.583 73.2093 126.578C73.2093 123.024 70.7761 120.728 67.0812 120.728C67.0709 120.728 67.0606 120.729 67.0504 120.729V123.523ZM67.0432 118.965H67.0637C71.7864 118.965 75.2668 122.031 75.2698 126.572H78.4022C78.3991 120.371 73.5112 115.951 67.0637 115.951H67.0432V118.965Z" fill="#B2B2B2"/>
</g>
</g>
<defs>
<clipPath id="clip0_101_146">
<rect y="237" width="237" height="361" rx="10" transform="rotate(-90 0 237)" fill="white"/>
</clipPath>
<clipPath id="clip1_101_146">
<rect width="231" height="20" fill="white" transform="translate(65 109)"/>
</clipPath>
</defs>
</svg>
