<svg width="361" height="237" viewBox="0 0 361 237" fill="none" xmlns="http://www.w3.org/2000/svg">
<g clip-path="url(#clip0_101_129)">
<rect y="237" width="237" height="361" rx="10" transform="rotate(-90 0 237)" fill="#313131"/>
<path fill-rule="evenodd" clip-rule="evenodd" d="M287.312 127.535L288.986 131.895L287.312 127.539L287.312 127.535ZM84.0676 118.493L83.0631 120.838L83.7327 120.838C84.7372 120.838 85.0721 120.838 85.7417 120.503C85.9156 120.492 86.0793 120.418 86.2025 120.294C86.3256 120.171 86.3999 120.007 86.4114 119.833L86.4114 118.828C86.0766 118.493 85.7417 118.493 85.0721 118.493L84.0676 118.493ZM276.263 109.782L282.29 109.782L277.602 125.194L271.575 125.194L276.263 109.782ZM193.559 98.3907C191.55 96.3805 187.532 97.3856 184.183 98.7258L184.183 99.7309C184.183 104.421 182.174 108.107 178.826 110.117C181.449 110.022 183.996 109.211 186.192 107.772C191.55 104.757 195.233 100.736 193.559 98.3907ZM288.652 127.539L231.395 127.539L232.065 131.895L289.991 131.895L288.652 127.539ZM72.0135 140.266L71.6787 142.277L75.3619 142.277C74.6922 143.617 73.6877 143.952 72.3483 143.952C71.5522 144.006 70.7537 143.891 70.0045 143.617L69 146.297C70.0984 146.544 71.2228 146.657 72.3483 146.632C77.3709 146.632 79.7147 143.617 79.7147 140.266C79.7147 138.256 78.7102 136.916 76.7012 136.246C75.1567 135.91 73.558 135.91 72.0135 136.246L71.3438 138.926C72.6832 138.591 75.3619 138.256 75.6967 140.266L72.0135 140.266ZM81.3889 138.926L85.0721 138.926L84.4024 141.607L85.7417 141.607L86.4114 138.926L90.0946 138.926L88.4204 146.637L84.7372 146.637L85.4069 143.621L84.0676 143.621L83.3979 146.637L79.7147 146.637L81.3889 138.931L81.3889 138.926ZM99.1351 143.617L99.1351 143.282C99.4056 142.767 99.5218 142.186 99.47 141.607C99.4923 141.425 99.4739 141.24 99.4159 141.066C99.358 140.892 99.2621 140.734 99.1351 140.601C99.1351 139.931 98.1306 138.591 95.7868 138.591C95.1043 138.566 94.4236 138.676 93.7839 138.915C93.1442 139.154 92.5583 139.518 92.0601 139.985C91.5619 140.453 91.1612 141.014 90.8813 141.638C90.6014 142.261 90.4478 142.934 90.4294 143.617C90.4172 144.057 90.5006 144.495 90.6741 144.9C90.8475 145.305 91.1068 145.667 91.4339 145.962C92.4384 146.632 93.4429 146.632 94.4474 146.632C95.6843 146.673 96.9214 146.56 98.1306 146.297L98.4655 144.287C97.5028 144.669 96.4856 144.895 95.452 144.957C93.7778 144.957 93.7778 143.952 93.7778 143.617L99.1351 143.617ZM94.1126 141.942C94.4474 140.601 95.1171 140.601 95.452 140.601C95.7868 140.601 96.1216 140.601 96.1216 141.272L96.1216 141.942L94.1126 141.942ZM104.827 138.926L104.492 140.266C104.809 139.753 105.253 139.329 105.781 139.037C106.309 138.744 106.903 138.592 107.506 138.596C108.176 138.596 110.185 138.931 110.185 141.611C110.185 144.626 108.176 146.637 105.832 146.637C105.162 146.637 104.158 146.637 103.488 145.632L102.818 149.652L98.8003 149.652L101.144 138.931L104.827 138.931L104.827 138.926ZM105.162 141.276C104.827 141.276 104.492 141.276 104.158 141.946C104.158 142.616 103.823 142.951 103.823 143.621C103.821 143.71 103.837 143.798 103.87 143.88C103.903 143.962 103.952 144.037 104.015 144.099C104.077 144.162 104.152 144.211 104.234 144.244C104.316 144.277 104.404 144.293 104.492 144.291C104.757 144.326 105.026 144.28 105.264 144.161C105.503 144.042 105.701 143.854 105.832 143.621C105.832 143.286 106.167 142.281 106.167 141.946C106.167 141.276 105.497 141.276 105.162 141.276ZM117.886 140.941L118.221 138.931L111.859 138.931L110.185 146.637L113.868 146.637L115.207 140.941L117.886 140.941ZM124.583 138.931L128.266 138.931L126.926 146.637L123.243 146.637L124.248 142.951L123.913 142.951L121.569 146.637L117.886 146.637L119.56 138.931L122.908 138.931L122.239 142.281L124.583 138.931ZM138.311 138.931L132.619 138.931C130.275 138.931 128.935 140.271 128.935 141.946C128.935 142.951 129.605 143.286 130.275 143.621L127.931 146.637L131.614 146.637L133.288 143.956L133.623 143.956L132.953 146.637L136.971 146.637L138.311 138.931ZM134.293 140.606L133.958 142.281L133.623 142.281C133.288 142.281 132.953 142.281 132.953 141.611C132.953 141.276 132.953 140.606 133.958 140.606L134.293 140.606ZM143.668 138.931L143.333 140.941L145.342 140.941L144.338 146.637L148.021 146.637L149.026 140.941L151.369 140.941L151.704 138.931L143.668 138.931ZM152.709 138.931L158.401 138.931C158.736 138.931 160.41 138.931 160.41 140.271C160.41 141.276 160.075 142.281 158.736 142.616C159.083 142.64 159.41 142.789 159.656 143.035C159.902 143.282 160.051 143.609 160.075 143.956C160.075 145.296 159.071 146.637 156.727 146.637L151.035 146.637L152.709 138.931ZM155.722 140.606L155.387 141.946L155.722 141.946C157.062 141.946 157.062 141.276 157.062 140.941C157.062 140.606 156.392 140.606 156.057 140.606L155.722 140.606ZM155.053 143.286L154.718 144.961L155.387 144.961C156.392 144.961 156.727 144.291 156.727 143.956C156.727 143.286 156.057 143.286 155.722 143.286L155.053 143.286ZM167.107 138.596C163.089 138.596 161.08 141.276 161.08 143.621C161.08 144.626 161.749 146.637 165.432 146.637C169.116 146.637 171.125 144.291 171.125 141.946C171.125 140.271 170.12 138.596 167.107 138.596ZM166.437 140.941C167.107 140.941 167.107 141.276 167.107 141.611C167.16 142.298 167.045 142.988 166.772 143.621C166.757 143.883 166.646 144.13 166.461 144.315C166.276 144.501 166.029 144.611 165.767 144.626C165.432 144.626 165.098 144.291 165.098 143.621C165.098 143.286 165.432 141.946 165.767 141.611C165.779 141.437 165.853 141.273 165.976 141.15C166.099 141.027 166.263 140.952 166.437 140.941ZM180.5 143.621L180.5 143.286C180.77 142.772 180.887 142.19 180.835 141.611C180.857 141.429 180.839 141.245 180.781 141.071C180.723 140.897 180.627 140.738 180.5 140.606C180.5 139.936 179.495 138.596 177.152 138.596C176.469 138.57 175.788 138.68 175.149 138.919C174.509 139.159 173.923 139.523 173.425 139.99C172.927 140.457 172.526 141.019 172.246 141.642C171.966 142.265 171.813 142.938 171.794 143.621C171.782 144.062 171.866 144.499 172.039 144.904C172.212 145.309 172.472 145.672 172.799 145.967C173.468 146.637 174.808 146.637 175.812 146.637C177.049 146.677 178.286 146.565 179.495 146.302L179.83 144.291C178.868 144.673 177.85 144.899 176.817 144.961C175.143 144.961 175.143 143.956 175.143 143.621L180.5 143.621ZM175.477 141.946C175.812 140.606 176.482 140.606 176.817 140.606C177.152 140.606 177.486 140.606 177.486 141.276L177.486 141.946L175.477 141.946ZM188.536 140.941L185.857 140.941L184.853 146.637L180.835 146.637L182.509 138.931L189.206 138.931L188.536 140.941ZM194.563 138.596C190.88 138.596 188.871 141.276 188.871 143.621C188.871 144.626 189.541 146.637 193.224 146.637C196.572 146.637 198.916 144.291 198.916 141.946C198.916 140.271 197.911 138.596 194.563 138.596ZM194.228 140.941C194.898 140.941 194.898 141.276 194.898 141.611C194.898 142.281 194.563 142.951 194.563 143.621C194.228 143.956 193.893 144.626 193.559 144.626C193.224 144.626 192.889 144.291 192.889 143.621C192.889 143.286 193.224 141.946 193.559 141.611C193.57 141.437 193.644 141.273 193.768 141.15C193.891 141.027 194.054 140.952 194.228 140.941ZM214.318 134.91C213.607 135.33 212.8 135.561 211.974 135.58C210.3 135.58 208.626 135.58 206.952 136.585C204.943 137.926 203.938 140.941 203.938 143.286C203.938 144.626 204.273 146.637 207.956 146.637C212.309 146.637 213.649 143.956 213.649 142.281C213.649 140.271 211.974 139.266 209.965 139.266C208.718 139.259 207.516 139.74 206.617 140.606L206.617 140.271C206.762 139.832 207.027 139.442 207.382 139.146C207.737 138.85 208.168 138.659 208.626 138.596C209.631 138.261 210.3 138.261 211.64 138.261C212.371 138.306 213.091 138.066 213.649 137.591L214.318 134.91ZM208.291 144.626C207.956 144.626 207.622 143.956 207.622 143.956C207.622 143.286 207.956 142.616 207.956 142.281C208.291 141.611 208.626 141.611 208.961 141.611C209.631 141.611 209.631 141.946 209.631 142.281L209.631 142.951C209.296 143.621 208.961 144.626 208.291 144.626ZM214.653 138.931L218.336 138.931L218.336 143.621L218.671 143.621L220.345 138.931L224.029 138.931L220.011 146.972C218.671 148.982 217.332 149.987 214.988 149.987C214.301 150.04 213.612 149.925 212.979 149.652L213.314 147.307C213.446 147.434 213.605 147.53 213.778 147.588C213.952 147.646 214.137 147.664 214.318 147.642C214.583 147.676 214.852 147.631 215.09 147.512C215.329 147.392 215.527 147.204 215.658 146.972L215.658 146.637L214.653 138.931ZM233.739 138.931L226.038 138.931L225.703 140.271C225.368 141.946 225.033 143.286 223.694 144.291L223.024 144.291L222.02 148.647L225.703 148.647L226.038 146.637L229.721 146.637L229.386 148.647L232.734 148.647L233.739 144.291L232.734 144.291L233.739 138.931ZM229.051 144.291L227.042 144.291C228.047 143.286 228.381 142.616 228.381 141.611L228.716 140.941L229.721 140.941L229.051 144.291ZM234.743 138.931L238.761 138.931L238.761 143.621L240.77 138.931L244.453 138.931L240.101 146.972C239.096 148.982 237.422 149.987 235.413 149.987C234.617 150.041 233.818 149.927 233.069 149.652L233.404 147.307C233.811 147.54 234.274 147.656 234.743 147.642C235.008 147.676 235.277 147.631 235.515 147.512C235.754 147.392 235.951 147.204 236.083 146.972L236.083 146.637L234.743 138.931ZM245.123 138.931L243.449 146.637L253.829 146.637L253.494 148.647L256.842 148.647L257.512 144.291L256.508 144.291L257.847 138.931L254.164 138.931L253.159 144.291L251.82 144.291L253.159 138.931L249.811 138.931L248.471 144.291L247.467 144.291L248.471 138.931L245.123 138.931ZM267.222 143.621L267.557 143.286L267.557 140.606C267.222 139.936 266.553 138.596 263.874 138.596C263.191 138.57 262.511 138.68 261.871 138.919C261.231 139.159 260.645 139.523 260.147 139.99C259.649 140.457 259.248 141.019 258.968 141.642C258.689 142.265 258.535 142.938 258.517 143.621C258.504 144.062 258.588 144.499 258.761 144.904C258.935 145.309 259.194 145.672 259.521 145.967C260.526 146.637 261.865 146.637 262.535 146.637C263.771 146.677 265.008 146.565 266.218 146.302L266.553 144.291C265.601 144.708 264.578 144.936 263.539 144.961C262.2 144.961 261.865 143.956 262.2 143.621L267.222 143.621ZM262.535 141.946C262.535 140.606 263.539 140.606 263.539 140.606C263.874 140.606 264.544 140.606 264.544 141.276C264.544 141.611 264.544 141.611 264.209 141.946L262.535 141.946ZM275.258 140.941L275.928 138.931L269.231 138.931L267.892 146.637L271.575 146.637L272.58 140.941L275.258 140.941ZM281.62 138.596C284.634 138.596 285.638 140.271 285.638 141.946C285.638 144.291 283.629 146.637 279.946 146.637C276.263 146.637 275.593 144.626 275.593 143.621C275.593 141.276 277.602 138.596 281.62 138.596ZM280.95 140.941C280.777 140.952 280.613 141.027 280.49 141.15C280.367 141.273 280.292 141.437 280.281 141.611C279.946 141.946 279.611 143.286 279.611 143.621C279.611 144.291 279.946 144.626 280.281 144.626C280.95 144.626 280.95 143.956 281.285 143.621C281.285 142.951 281.62 142.281 281.62 141.611C281.62 141.276 281.62 140.941 280.95 140.941ZM287.982 136.25L287.312 142.616L289.991 142.616L292 136.25L287.982 136.25ZM286.643 143.621L286.308 146.637L289.321 146.637L289.991 143.621L286.643 143.621ZM284.299 113.468L279.946 118.828L281.285 125.194L287.982 125.194L285.973 118.828L290.661 113.468L284.299 113.468ZM258.182 113.468L254.499 125.194L260.526 125.194L261.865 120.838L265.213 120.838L263.874 125.194L269.901 125.194L273.584 113.468L267.557 113.468L266.553 117.153L262.869 117.153L264.209 113.468L258.182 113.468ZM229.721 114.138C231.567 113.56 233.48 113.222 235.413 113.133C237.422 113.133 238.426 113.468 239.431 114.138C240.157 115.224 240.51 116.518 240.435 117.823C240.435 118.158 240.101 118.493 240.101 119.163L239.096 121.174C238.64 121.923 238.076 122.6 237.422 123.184C236.752 123.519 236.083 124.189 235.078 124.524C234.115 124.906 233.098 125.132 232.065 125.194C231.395 125.529 230.725 125.529 229.721 125.529C228.678 125.544 227.646 125.314 226.707 124.859L227.712 132.23L222.354 132.23L222.354 126.199L219.341 132.23L213.983 132.23L212.979 126.199L210.97 132.23L205.613 132.23L210.635 121.174L216.327 121.174L217.667 126.534L220.011 121.174L223.694 121.174L223.694 119.498L225.368 114.138C226.038 112.462 226.707 111.457 228.047 110.452C229.386 109.447 230.725 109.112 232.399 108.777C233.739 108.442 235.413 108.442 237.422 108.107L241.44 108.107L240.101 112.462C238.8 112.05 237.447 111.824 236.083 111.792C235.078 111.792 234.074 112.127 233.069 112.127C232.065 112.462 231.395 112.462 230.725 112.798C230.056 113.133 229.721 113.468 229.721 113.803L229.721 114.138ZM247.132 125.194C246.568 125.273 246.009 125.385 245.458 125.529L243.784 125.529C242.11 125.529 241.105 125.194 240.435 124.524C239.766 123.854 239.431 123.184 239.766 122.179C240.101 121.174 240.435 120.503 241.105 120.168C241.44 119.498 242.11 119.163 242.779 118.828C243.449 118.828 244.453 118.493 245.458 118.493C246.462 118.158 247.132 118.158 248.137 117.823L248.806 117.823L249.476 117.153L249.141 116.818L248.137 116.818C246.797 116.818 245.123 117.153 242.444 117.823L244.119 114.138C246.797 113.803 248.806 113.468 250.48 113.468C251.847 113.47 253.205 113.696 254.499 114.138C254.704 114.191 254.896 114.288 255.062 114.422C255.227 114.556 255.362 114.724 255.457 114.914C255.552 115.105 255.606 115.313 255.613 115.526C255.621 115.739 255.584 115.951 255.503 116.148L252.824 125.194L247.132 125.194ZM248.137 122.179L248.471 120.838C247.948 121.081 247.374 121.196 246.797 121.174C246.624 121.365 246.385 121.484 246.128 121.509L245.793 121.844L245.793 122.514L247.132 122.514C247.447 122.35 247.786 122.237 248.137 122.179ZM117.216 126.865C116.938 124.194 116.826 121.508 116.881 118.824L112.863 125.19L106.836 125.19L115.207 113.463L121.904 113.463L122.574 121.174C124.248 121.174 125.922 120.838 127.261 120.838C128.277 120.784 129.295 120.897 130.275 121.174C131.081 121.447 131.865 121.783 132.619 122.179C133.623 123.184 133.288 124.859 132.284 125.864C131.949 126.534 131.279 126.869 130.944 127.204C130.334 127.576 129.647 127.805 128.935 127.874C128.266 128.209 127.261 128.209 126.257 128.209C126.083 128.401 125.844 128.52 125.587 128.544L125.252 128.879C125.252 129.215 125.252 129.215 125.587 129.215C125.587 129.55 125.922 129.55 126.592 129.55C127.598 129.55 129.272 129.215 131.614 128.544L130.61 131.895C128.725 132.164 126.821 132.276 124.917 132.23C123.243 132.23 121.904 132.23 120.899 131.56C119.895 131.225 119.225 130.555 119.225 129.55C119.454 128.662 119.917 127.852 120.565 127.204C121.212 126.556 122.022 126.093 122.908 125.864C124.042 125.74 125.163 125.516 126.257 125.194L127.261 125.194L127.261 124.524C127.596 124.524 127.261 124.189 126.926 124.189C126.645 123.956 126.287 123.836 125.922 123.854C122.574 123.854 120.23 125.864 117.216 126.869L117.216 126.865ZM74.6922 127.535L73.3529 131.89L116.881 131.89L117.886 127.535L74.6922 127.535ZM85.0721 114.803L88.0856 114.803C89.4249 114.803 90.4294 114.803 91.4339 115.473C91.8244 115.647 92.1575 115.929 92.3945 116.284C92.6316 116.64 92.7629 117.056 92.7733 117.484C93.1108 118.345 93.1108 119.302 92.7733 120.164C92.4384 120.834 92.1036 121.839 91.4339 122.509C90.726 123.261 89.9403 123.934 89.0901 124.519C88.0856 124.855 87.4159 125.19 86.4114 125.19L75.3619 125.19L80.0495 109.443L93.7778 109.443L92.7733 113.798L85.4069 113.798L85.0721 114.803ZM107.171 121.174C105.413 121.582 103.618 121.807 101.814 121.844C100.14 121.844 99.47 121.174 99.47 120.168L108.176 120.168L108.176 119.498C108.511 119.163 108.511 119.163 108.511 118.828C108.848 117.967 108.848 117.009 108.511 116.148C108.176 115.143 107.841 114.473 106.836 114.138C104.827 112.798 102.149 113.133 99.8048 113.803C98.743 114.107 97.7287 114.558 96.7913 115.143L94.7823 117.153C94.4474 118.158 94.1126 118.828 94.1126 119.498C93.4429 121.509 93.7778 123.184 94.7823 123.854C97.461 126.199 101.479 125.194 104.827 124.859L107.171 121.174ZM100.14 118.158C100.474 117.488 100.474 117.153 101.144 116.818C101.421 116.572 101.778 116.436 102.149 116.436C102.519 116.436 102.876 116.572 103.153 116.818L103.153 118.158L100.14 118.158ZM139.65 132.23L145.342 132.23L146.347 123.854C146.337 123.426 146.205 123.01 145.968 122.655C145.731 122.299 145.398 122.018 145.008 121.844C143.714 121.402 142.356 121.176 140.989 121.174C139.07 121.118 137.152 121.344 135.297 121.844L134.293 125.194C136.638 124.524 138.312 124.189 139.315 124.189L140.32 124.189L140.655 124.524C140.655 124.859 140.32 124.859 140.32 125.194L139.65 125.194C138.98 125.529 137.976 125.529 136.971 125.529C136.302 125.864 135.632 125.864 134.962 126.199C134.362 126.458 133.799 126.796 133.288 127.204C132.917 127.816 132.688 128.503 132.619 129.215C132.284 130.22 132.619 130.89 133.623 131.56C134.293 132.23 135.297 132.565 136.637 132.565C137.306 132.565 137.641 132.23 138.311 132.23L139.65 132.23ZM148.356 121.844C150.321 121.325 152.352 121.099 154.383 121.174C156.392 121.174 157.731 121.509 158.401 121.844C158.728 122.138 158.987 122.501 159.161 122.906C159.334 123.311 159.418 123.749 159.405 124.189C159.322 124.693 159.088 125.16 158.736 125.529C158.066 125.864 157.731 126.199 157.062 126.534C157.662 126.793 158.225 127.131 158.736 127.539C159.071 127.874 159.071 128.544 159.071 129.215L159.071 129.55C158.736 130.22 158.401 130.89 157.731 131.225C157.062 131.895 156.392 131.895 155.387 132.23C154.383 132.565 153.378 132.565 152.039 132.565C150.469 132.609 148.899 132.497 147.351 132.23L147.351 128.879C148.691 129.215 150.365 129.885 152.039 129.885C152.374 129.885 153.044 129.885 153.378 129.55C153.713 129.215 154.048 128.879 154.048 128.544C154.048 127.874 153.378 127.204 152.374 126.534C152.709 126.534 153.044 126.199 153.378 125.864C153.552 125.853 153.716 125.778 153.839 125.655C153.962 125.532 154.037 125.368 154.048 125.194C154.048 124.524 154.048 124.524 153.378 124.189L152.709 124.189C150.986 124.199 149.28 124.54 147.686 125.194L148.356 121.844ZM184.518 124.524C185.188 124.859 185.523 125.864 185.523 126.869C185.523 127.874 184.518 128.879 183.514 128.544C182.844 128.544 182.509 127.539 182.509 126.534C182.845 125.194 183.515 124.524 184.518 124.524ZM161.414 121.174L166.772 121.174L166.772 122.179C167.364 121.664 168.057 121.28 168.807 121.049C169.556 120.818 170.346 120.746 171.125 120.838C171.812 120.785 172.501 120.9 173.134 121.174C173.803 121.509 174.473 121.844 174.808 122.514C175.143 123.184 175.477 123.854 175.143 124.524L174.473 132.23L168.781 132.23L169.45 126.534C169.473 126.352 169.454 126.168 169.396 125.994C169.339 125.82 169.243 125.661 169.116 125.529C168.781 125.194 168.781 125.194 168.446 125.194C167.776 125.194 167.441 125.194 167.107 125.864C166.437 126.199 166.437 126.534 166.102 127.539L165.767 132.23L160.075 132.23L161.414 121.174ZM198.246 125.194C197.894 125.563 197.66 126.03 197.577 126.534C197.525 127.113 197.641 127.695 197.911 128.209C198.246 128.544 198.581 128.879 198.916 128.879C199.423 128.807 199.893 128.572 200.256 128.21C200.618 127.847 200.853 127.377 200.925 126.869C200.977 126.29 200.861 125.709 200.59 125.194C200.255 124.859 199.92 124.524 199.586 124.524C199.251 124.524 198.916 124.859 198.246 125.194ZM197.577 121.174C196.066 121.425 194.666 122.126 193.559 123.184C192.868 124.229 192.306 125.354 191.884 126.534C191.947 127.568 192.173 128.586 192.554 129.55C193.043 130.379 193.734 131.071 194.563 131.56C195.748 131.974 196.991 132.2 198.246 132.23L200.59 132.23C201.26 131.895 202.264 131.895 202.934 131.56C203.555 131.198 204.119 130.746 204.608 130.22C205.278 129.55 205.613 128.879 205.947 128.544C206.319 127.933 206.548 127.246 206.617 126.534L206.617 125.194C206.617 124.524 206.282 124.189 205.947 123.519C205.684 122.92 205.206 122.442 204.608 122.179C204.273 121.509 203.604 121.509 202.934 121.174C202.069 120.898 201.161 120.784 200.255 120.838C199.35 120.804 198.445 120.917 197.577 121.174ZM177.486 121.509L175.477 136.92L181.17 136.92L181.839 131.56C183.081 132.205 184.458 132.55 185.857 132.565C186.683 132.545 187.49 132.315 188.201 131.895C189.03 131.406 189.721 130.714 190.21 129.885C190.629 129.052 190.857 128.136 190.88 127.204C191.215 125.864 190.88 124.859 190.545 123.519C189.541 121.844 187.532 121.174 183.848 121.174L181.505 121.174C180.709 121.141 179.915 121.255 179.161 121.509L177.486 121.509ZM139.985 129.215C139.853 129.342 139.694 129.438 139.521 129.495C139.347 129.553 139.162 129.572 138.98 129.55L138.311 129.55C137.976 129.55 137.976 129.215 137.976 128.879L138.311 128.544L138.646 128.544C139.315 128.209 139.985 128.209 140.32 127.874L139.985 129.215ZM231.06 117.488C230.725 118.158 230.056 118.828 230.056 119.498C229.894 119.684 229.804 119.922 229.804 120.168C229.804 120.415 229.894 120.653 230.056 120.838C230.056 121.509 230.39 121.509 231.06 121.509C231.371 121.524 231.681 121.472 231.97 121.356C232.259 121.241 232.52 121.064 232.734 120.838C233.148 120.457 233.488 120.003 233.739 119.498L233.739 118.158C233.761 117.976 233.743 117.792 233.685 117.618C233.627 117.444 233.531 117.285 233.404 117.153C233.223 116.971 232.988 116.853 232.734 116.818C232.144 116.95 231.579 117.177 231.06 117.488ZM153.713 98.3907C155.387 96.3805 159.405 97.3856 163.089 98.7258L163.089 99.7309C163.089 104.421 165.098 108.107 168.446 110.117C166.102 110.117 163.758 109.447 160.745 107.772C155.722 104.757 152.039 100.736 153.713 98.3907ZM198.916 106.762C200.925 108.773 195.902 110.448 189.206 111.118C187.771 111.384 186.312 111.496 184.853 111.453C185.915 111.148 186.929 110.697 187.866 110.113C189.858 108.791 191.566 107.083 192.889 105.092C195.568 105.427 197.911 105.762 198.916 106.767L198.916 106.762ZM153.713 104.752C152.039 102.072 151.704 99.7264 153.044 97.7162C154.048 96.041 158.736 95.7059 163.089 97.3812C164.093 92.0205 168.446 88 173.468 88C178.826 88 182.844 92.0205 183.848 97.3812C188.536 95.7059 192.889 96.041 194.228 97.7162C195.568 99.7264 194.898 102.072 193.224 104.752C196.572 105.087 199.251 105.757 200.255 106.762C202.599 109.108 197.911 111.788 190.88 112.793C186.527 113.463 177.486 114.133 173.468 111.788C169.785 114.133 160.745 113.463 156.392 112.793C149.36 111.788 144.673 109.108 147.017 106.762C148.021 105.757 150.365 105.087 153.713 104.752ZM148.021 106.762C146.347 108.773 151.369 110.448 158.066 111.118C159.499 111.396 160.96 111.508 162.419 111.453C161.414 111.118 160.41 110.448 159.405 110.113C157.396 108.773 155.387 107.097 154.383 105.087C151.704 105.422 149.36 105.757 148.021 106.762ZM173.468 89.3402C177.821 89.3402 181.17 93.3607 181.504 98.3863C181.17 98.7213 180.5 99.0564 180.165 99.3914C179.83 99.7264 179.161 99.7264 178.826 100.061L178.826 102.072C179.72 101.249 180.737 100.571 181.839 100.061C181.504 105.757 178.156 110.452 173.468 110.452C169.116 110.452 165.432 105.762 165.432 100.066C166.535 100.575 167.552 101.253 168.446 102.076L168.111 100.066C167.776 99.7309 167.441 99.7309 167.107 99.3959C166.596 98.9875 166.033 98.6495 165.432 98.3907C166.102 93.3607 169.45 89.3402 173.468 89.3402Z" fill="#B2B2B2"/>
</g>
<defs>
<clipPath id="clip0_101_129">
<rect y="237" width="237" height="361" rx="10" transform="rotate(-90 0 237)" fill="white"/>
</clipPath>
</defs>
</svg>
